<?xml version="1.0" standalone="no"?>
<!DOCTYPE svg PUBLIC "-//W3C//DTD SVG 20010904//EN"
 "http://www.w3.org/TR/2001/REC-SVG-20010904/DTD/svg10.dtd">
<svg version="1.0" xmlns="http://www.w3.org/2000/svg"
 width="1280.000000pt" height="682.000000pt" viewBox="0 0 1280.000000 682.000000"
 preserveAspectRatio="xMidYMid meet">
<metadata>
Created by potrace 1.15, written by Peter Selinger 2001-2017
</metadata>
<g transform="translate(0.000000,682.000000) scale(0.100000,-0.100000)"
fill="#000000" stroke="none">
<path d="M8138 6759 c-15 -8 -18 -25 -18 -107 1 -70 3 -92 11 -80 5 10 10 20
10 23 0 2 5 19 11 37 12 36 18 138 9 138 -3 0 -14 -5 -23 -11z"/>
<path d="M8753 6548 c-11 -13 -50 -68 -87 -123 -51 -77 -66 -94 -66 -75 0 14
-7 35 -15 47 -17 24 -74 44 -103 37 -14 -4 -23 7 -41 51 -13 31 -25 54 -27 52
-5 -5 75 -197 88 -211 5 -6 8 -4 8 6 0 10 13 18 36 23 20 3 38 4 40 2 8 -7
-15 -57 -26 -57 -5 0 -19 -9 -30 -20 -27 -27 -30 -123 -3 -113 11 4 14 3 9 -5
-8 -14 -45 -15 -65 -3 -8 5 -10 14 -5 22 4 8 9 32 11 54 2 22 6 46 8 53 5 14
-38 118 -59 142 -8 8 -17 29 -20 46 -4 17 -19 42 -33 55 l-25 24 21 -42 c11
-23 21 -44 21 -46 0 -2 -20 -7 -45 -10 -96 -14 -146 -52 -157 -122 -4 -25 -46
-26 -134 -1 -47 12 -72 14 -103 7 -44 -10 -130 -58 -186 -104 -38 -31 -65 -95
-45 -107 16 -10 -60 -46 -127 -60 -69 -15 -88 -38 -88 -107 0 -48 4 -58 28
-79 33 -28 91 -32 123 -9 12 8 43 23 70 34 43 17 53 17 74 5 33 -18 69 -18 76
1 4 8 13 15 21 15 8 0 12 -4 9 -9 -7 -11 31 -22 50 -14 8 3 14 9 14 14 0 5 18
6 40 3 36 -6 40 -4 40 14 0 11 7 23 16 26 22 9 24 8 24 -9 0 -11 7 -14 24 -9
20 5 27 0 41 -25 19 -38 27 -40 19 -3 -4 21 -3 24 5 12 6 -8 11 -32 11 -53 0
-21 4 -36 9 -33 11 7 20 66 10 66 -8 0 -24 44 -38 108 -10 47 7 57 20 11 7
-22 7 -23 8 -2 1 12 7 28 14 35 7 7 16 21 20 31 7 19 27 23 27 5 0 -6 7 -4 18
5 21 19 126 24 137 7 4 -7 12 -7 25 0 28 15 30 13 30 -25 0 -29 -8 -43 -42
-75 -23 -22 -38 -43 -34 -47 4 -4 11 -2 15 6 6 10 10 9 15 -4 3 -9 4 -21 0
-26 -7 -12 -44 -12 -44 0 0 14 -96 33 -130 26 -16 -4 -30 -13 -30 -21 0 -17
29 -31 39 -18 12 18 31 13 47 -11 13 -20 15 -33 7 -58 -8 -29 -13 -32 -48 -33
-22 -1 -48 -5 -59 -9 -17 -8 -17 -9 5 -20 14 -8 31 -10 45 -5 23 9 44 -4 44
-27 0 -10 6 -10 23 -2 18 8 36 6 83 -11 151 -55 294 -84 294 -61 0 6 -9 11
-21 11 -26 0 -225 45 -263 59 -24 10 -26 14 -16 26 7 9 33 20 57 26 28 8 50
21 63 40 12 15 36 34 55 40 37 14 47 29 19 29 -13 0 -14 3 -4 15 12 15 10 64
-5 98 -5 13 -2 17 14 17 24 0 81 -26 81 -37 0 -4 -17 -24 -37 -45 l-37 -38 34
6 c19 4 48 16 64 27 24 17 32 18 49 7 18 -11 23 -9 46 19 14 17 32 31 39 31 7
0 39 -13 72 -30 61 -31 94 -37 105 -20 7 12 -96 72 -113 65 -8 -3 -10 0 -6 7
5 8 2 9 -10 5 -9 -4 -15 -3 -11 2 3 5 0 11 -7 13 -8 3 6 33 41 86 47 72 57 82
83 82 34 0 45 21 25 50 -13 19 -12 26 15 75 l29 54 -43 28 c-90 61 -214 133
-229 133 -9 0 -25 -10 -36 -22z m-52 -127 c-42 -61 -62 -81 -40 -38 19 36 72
107 77 103 2 -3 -15 -32 -37 -65z m-346 -1 c-3 -5 7 -12 22 -16 46 -10 49 -12
16 -13 -17 -1 -44 4 -60 10 -26 10 -27 12 -8 19 28 12 37 12 30 0z m-371 -161
c8 -9 7 -10 -9 -4 -11 4 -45 11 -75 16 l-55 8 64 -4 c35 -2 68 -9 75 -16z
m226 11 c0 -5 -2 -10 -4 -10 -3 0 -8 5 -11 10 -3 6 -1 10 4 10 6 0 11 -4 11
-10z m245 -57 c-3 -19 -9 -33 -12 -30 -3 3 -2 25 2 49 5 24 10 37 12 30 3 -7
2 -29 -2 -49z m56 -174 l-11 -34 5 34 c3 18 6 48 7 65 l1 31 4 -31 c2 -18 -1
-47 -6 -65z m-1 -76 c-1 -35 -62 -44 -68 -10 -3 14 4 17 32 17 20 0 36 -3 36
-7z m-105 -56 c19 -4 19 -5 -1 -6 -12 0 -28 7 -35 17 -12 15 -12 16 1 6 8 -7
24 -14 35 -17z m20 -27 c-3 -5 -10 -10 -16 -10 -5 0 -9 5 -9 10 0 6 7 10 16
10 8 0 12 -4 9 -10z m95 -5 c-7 -9 -15 -13 -17 -11 -7 7 7 26 19 26 6 0 6 -6
-2 -15z m-182 -75 c-7 -10 -14 -17 -17 -15 -4 4 18 35 25 35 2 0 -1 -9 -8 -20z"/>
<path d="M8152 6474 c9 -9 21 -13 27 -9 16 10 3 25 -22 25 -20 0 -20 -1 -5
-16z"/>
<path d="M8120 6445 c0 -14 -5 -25 -11 -25 -5 0 -7 6 -3 13 6 9 5 9 -7 0 -19
-15 -13 -73 7 -73 18 0 23 11 30 64 5 31 3 46 -5 46 -6 0 -11 -11 -11 -25z"/>
<path d="M9083 5953 c15 -2 39 -2 55 0 15 2 2 4 -28 4 -30 0 -43 -2 -27 -4z"/>
<path d="M9180 5950 c8 -5 26 -10 39 -10 32 0 24 6 -19 14 -25 4 -31 3 -20 -4z"/>
<path d="M8920 5940 c-15 -5 6 -6 50 -3 41 3 77 7 79 9 8 8 -105 2 -129 -6z"/>
<path d="M8713 5906 c41 -36 48 -57 17 -49 -16 4 -20 0 -20 -21 0 -25 -2 -26
-62 -27 -35 0 -83 -4 -108 -9 -32 -6 -14 -7 60 -3 97 4 106 3 117 -15 9 -14 9
-30 3 -54 -6 -18 -10 -53 -10 -77 l0 -44 -44 6 c-44 6 -156 51 -156 62 0 4 8
4 18 1 9 -2 53 -7 97 -10 l80 -5 -84 14 c-46 7 -121 25 -166 39 -94 29 -106
31 -81 13 11 -8 15 -19 10 -30 -8 -22 -16 -22 -74 8 -77 39 -129 29 -55 -11
19 -10 35 -22 35 -27 0 -4 -9 -3 -21 3 -11 7 -34 13 -51 15 -16 3 -55 22 -86
45 -31 22 -83 53 -114 69 -53 26 -64 41 -31 41 31 0 83 29 77 43 -3 9 -13 13
-25 10 -10 -3 -26 0 -34 7 -13 11 -18 10 -31 -8 -15 -22 -44 -30 -44 -12 0 6
-4 10 -9 10 -15 0 7 -55 30 -76 11 -10 73 -46 137 -79 89 -47 118 -66 120 -83
4 -28 2 -28 -50 6 -24 16 -76 46 -116 68 -41 21 -89 54 -107 72 l-34 34 -108
-12 c-148 -16 -276 -39 -284 -51 -3 -6 -18 -7 -33 -3 -27 6 -27 7 -6 21 11 8
20 24 19 36 0 21 -1 21 -9 2 -8 -19 -9 -19 -9 1 -1 12 -8 25 -17 28 -24 9 -31
7 -14 -4 12 -7 12 -10 1 -10 -7 0 -11 -6 -8 -15 8 -20 -9 -28 -33 -15 -22 12
-73 3 -64 -11 3 -5 11 -6 17 -3 8 5 9 4 2 -4 -5 -5 -47 -22 -93 -36 -92 -29
-125 -25 -114 16 5 21 5 21 -21 2 -30 -22 -33 -33 -14 -58 10 -14 18 -16 33
-9 27 14 145 45 150 40 2 -2 -26 -12 -63 -22 -45 -12 -76 -28 -95 -47 -20 -21
-62 -40 -146 -68 -281 -92 -503 -203 -842 -421 -370 -237 -525 -372 -596 -514
-21 -44 -40 -82 -41 -84 -1 -2 -14 6 -29 18 -55 44 -120 28 -379 -92 -162 -74
-400 -171 -530 -215 -365 -125 -658 -60 -985 218 -106 89 -155 118 -239 142
-61 17 -73 17 -186 3 -203 -25 -515 -114 -591 -167 -45 -32 -97 -105 -81 -112
7 -3 -9 -4 -35 -2 -34 2 -48 0 -48 -9 0 -9 -32 -14 -107 -19 -241 -15 -400
-44 -616 -110 -62 -19 -128 -37 -148 -40 -21 -4 -48 -15 -60 -25 -13 -10 -83
-48 -154 -83 -127 -64 -227 -121 -311 -179 -39 -27 -42 -27 -57 -11 -9 9 -54
44 -101 77 l-85 60 -7 53 c-5 42 -3 61 12 87 10 19 15 37 11 41 -4 4 -7 0 -7
-9 0 -22 -36 -22 -44 -1 -4 9 0 25 9 34 14 15 13 18 -3 33 -21 19 -57 22 -67
7 -3 -5 1 -10 10 -10 10 0 13 -5 9 -12 -4 -6 -6 -81 -5 -167 l2 -156 -43 -15
-43 -15 -5 -69 c-3 -43 -10 -71 -17 -74 -8 -2 -13 -22 -13 -51 0 -45 2 -49 39
-69 22 -13 47 -20 57 -16 15 4 14 1 -5 -15 -13 -12 -36 -21 -51 -21 -16 0 -36
-3 -46 -7 -12 -4 -15 -3 -10 5 10 16 -5 15 -29 -2 -11 -7 -45 -16 -75 -20 -30
-4 -62 -13 -70 -20 -19 -17 -266 -30 -275 -16 -11 18 -54 11 -75 -12 -11 -12
-17 -25 -13 -29 5 -4 103 -4 219 -1 208 7 211 7 250 34 37 26 124 49 124 33 0
-4 -25 -44 -57 -88 -215 -311 -246 -360 -284 -460 -21 -56 -39 -107 -39 -113
0 -18 52 -24 204 -24 159 0 221 12 366 73 47 19 117 45 155 57 39 12 76 24 84
27 7 3 -19 -32 -59 -78 -304 -349 -465 -836 -430 -1297 18 -232 69 -420 175
-637 249 -511 704 -861 1270 -976 94 -20 143 -23 335 -23 241 -1 298 5 485 54
298 78 553 225 786 455 157 155 285 338 376 538 41 91 52 107 75 113 20 4 28
12 28 27 0 12 4 27 8 34 5 8 104 24 267 43 308 35 491 65 560 91 55 21 79 23
170 14 33 -4 78 -2 100 3 l40 10 -52 1 c-29 1 -53 5 -53 10 0 5 46 7 103 4
304 -13 904 -20 921 -10 26 13 213 2 284 -16 46 -13 51 -12 40 1 -11 13 -9 15
17 10 17 -3 117 -18 223 -34 l192 -28 0 -27 0 -28 -317 6 c-175 3 -323 9 -328
13 -6 5 -31 4 -58 -1 -26 -4 -67 -5 -91 0 -26 5 -51 4 -61 -2 -9 -5 -213 -13
-453 -17 -645 -13 -1479 -43 -1491 -55 -13 -13 26 -14 255 -5 502 19 1099 31
1484 29 271 -1 406 2 430 10 37 12 565 16 607 5 15 -4 23 -15 26 -38 4 -30 4
-30 5 5 l2 36 388 6 c234 4 407 10 437 17 158 37 285 143 358 300 56 120 244
599 274 695 36 119 33 168 -27 437 -40 178 -51 246 -45 274 8 44 17 34 35 -37
6 -24 18 -71 26 -104 8 -33 21 -89 28 -125 7 -36 28 -119 47 -185 30 -108 34
-133 34 -250 0 -71 2 -119 3 -105 2 14 8 29 12 34 5 5 7 1 5 -10 -2 -10 -9
-44 -16 -74 -12 -57 -203 -559 -240 -633 -12 -23 -34 -60 -49 -82 -39 -58 -45
-74 -15 -40 47 55 82 128 180 375 126 318 140 359 160 455 20 96 15 156 -25
313 -22 82 -27 119 -20 137 5 13 34 118 65 234 31 115 67 241 80 278 13 38 33
116 44 173 38 188 113 495 126 510 7 8 32 87 54 174 26 102 50 174 67 199 l26
39 23 -22 c17 -16 31 -21 49 -16 23 6 24 9 19 64 -4 46 -2 60 11 71 15 13 21
10 54 -22 21 -21 41 -37 45 -37 4 0 21 10 38 22 30 23 31 23 45 3 12 -17 12
-20 -1 -28 -8 -4 -20 -5 -25 -2 -6 3 -10 2 -10 -3 0 -5 -11 -9 -24 -9 -13 0
-43 -12 -67 -26 l-43 -26 30 -6 c16 -4 37 -9 46 -12 13 -3 16 0 12 11 -7 19 7
21 24 4 8 -8 12 -9 12 -1 0 6 -6 14 -12 16 -8 3 -6 6 4 6 11 1 25 -14 37 -36
37 -74 142 -412 199 -643 84 -337 83 -297 16 -372 -247 -275 -406 -573 -483
-908 -42 -182 -64 -400 -40 -400 19 0 86 58 125 111 l39 50 6 -238 c5 -213 8
-251 33 -357 39 -168 76 -270 157 -431 89 -180 175 -299 324 -454 185 -190
330 -296 553 -403 143 -69 316 -128 469 -160 92 -19 138 -22 313 -22 210 0
292 10 471 54 190 47 438 159 619 281 201 136 439 391 531 570 10 22 23 39 27
39 14 0 52 76 82 165 15 48 36 95 45 106 12 13 16 28 12 48 -7 35 16 90 29 70
5 -8 15 17 26 66 14 65 15 86 6 109 -9 23 -9 31 0 34 8 2 9 10 3 20 -4 9 -7
31 -7 47 1 23 6 30 21 30 23 1 22 21 -3 48 -11 12 -16 38 -17 77 0 33 -4 62
-8 66 -14 14 -7 36 9 30 10 -4 6 5 -10 25 -36 42 -33 52 9 28 35 -21 35 -22
35 -89 0 -38 5 -72 10 -75 13 -8 13 113 0 152 -7 18 -24 36 -45 46 -27 13 -35
24 -40 54 -8 51 -23 85 -34 79 -5 -3 -11 10 -13 29 -5 41 13 47 30 10 14 -31
92 -73 92 -50 0 9 -13 24 -30 33 -18 10 -35 31 -41 51 -10 30 -13 32 -23 19
-12 -17 -25 15 -57 145 -6 27 -18 51 -25 54 -7 2 -10 11 -8 18 9 21 -16 95
-31 95 -8 0 -14 10 -13 27 0 35 -14 66 -84 183 -72 121 -74 131 -25 143 48 12
43 30 -11 38 -23 3 -50 13 -60 22 -14 13 -21 14 -30 5 -9 -9 -12 -8 -12 4 0 9
-7 24 -16 32 -14 15 -14 16 5 16 28 0 27 16 -1 24 -19 5 -20 8 -9 15 12 8 8
11 -15 17 l-29 7 30 13 c28 11 31 10 73 -37 41 -46 72 -62 72 -39 0 6 -6 10
-13 10 -8 0 -28 18 -46 41 -19 22 -47 49 -63 59 -28 17 -29 19 -11 29 17 10
16 12 -10 32 -15 12 -60 52 -99 90 -39 37 -75 66 -79 63 -4 -2 -10 4 -13 13
-6 18 -30 36 -167 128 -204 136 -537 256 -782 281 -37 4 -66 8 -64 10 2 2 50
18 107 34 125 38 160 55 160 79 0 22 -7 24 -160 47 -91 13 -157 15 -310 11
-271 -8 -439 -39 -675 -126 -120 -44 -130 -49 -128 -72 4 -55 24 -122 56 -186
53 -104 230 -404 273 -462 l38 -50 57 2 57 2 -21 35 c-12 19 -34 55 -49 79
-15 25 -28 51 -28 58 0 6 30 21 68 32 675 198 1403 -119 1707 -744 257 -529
158 -1162 -248 -1582 -217 -225 -439 -351 -751 -425 -125 -30 -456 -33 -586
-5 -288 62 -529 189 -729 387 -123 122 -202 226 -268 356 -111 216 -156 399
-156 634 0 312 72 551 241 805 75 112 250 297 260 275 4 -9 19 -32 35 -51 15
-20 27 -40 27 -45 0 -5 21 -31 46 -59 25 -27 40 -40 35 -28 -15 31 -15 34 21
88 l32 48 -22 41 -22 41 28 -33 c40 -48 45 -29 9 36 -96 176 -276 474 -312
517 -68 80 -119 165 -106 178 16 16 13 78 -4 91 -15 12 -218 350 -330 551 -38
69 -72 125 -75 125 -4 0 -14 -6 -23 -13 -16 -11 -16 -16 11 -72 57 -122 71
-147 45 -77 -13 36 9 0 137 -222 81 -140 128 -231 122 -235 -14 -8 -32 -56
-32 -83 0 -17 2 -18 15 -8 13 11 18 10 30 -6 8 -10 18 -30 22 -44 l7 -25 7 25
c20 69 12 90 -99 280 -129 221 -188 329 -175 315 12 -12 253 -416 282 -472 14
-28 18 -51 14 -85 -5 -40 -1 -54 31 -107 41 -71 44 -82 16 -56 -19 17 -22 16
-92 -39 -40 -30 -98 -76 -129 -100 l-55 -45 -34 147 c-18 81 -42 172 -52 202
-10 30 -23 75 -29 100 -12 55 -28 113 -85 296 -46 147 -50 169 -35 159 23 -14
18 18 -10 72 -17 32 -32 69 -33 83 -1 14 -7 35 -14 48 -14 24 -15 22 51 94 18
18 17 21 -16 81 -19 34 -47 85 -62 112 -15 28 -31 55 -35 60 -5 6 -19 30 -33
55 -13 25 -64 113 -112 195 -119 203 -205 358 -202 362 8 8 195 -53 214 -69
11 -11 35 -46 53 -79 19 -35 36 -57 42 -53 7 5 8 2 4 -5 -5 -8 20 -59 62 -129
39 -64 106 -180 151 -257 44 -77 85 -147 90 -155 5 -8 12 -12 15 -9 4 4 -24
63 -63 130 -62 109 -70 128 -65 160 7 40 -8 58 -30 40 -10 -9 -17 -6 -28 11
-33 52 -33 54 -8 35 58 -41 80 -35 80 23 0 22 5 40 10 40 6 0 10 -6 10 -12 0
-7 5 -5 11 5 6 10 39 31 72 46 34 16 71 38 81 50 23 25 18 26 -20 6 -27 -14
-29 -14 -32 6 -3 19 -5 19 -27 5 -22 -15 -25 -14 -34 2 -9 15 -10 15 -11 -5 0
-15 -10 -24 -31 -32 -18 -6 -35 -11 -38 -11 -3 0 -6 25 -7 57 0 31 1 52 3 46
2 -5 17 -8 32 -5 35 5 95 -13 117 -35 20 -20 32 -8 16 17 -18 29 8 26 42 -5
18 -17 26 -20 26 -10 0 23 -33 51 -89 77 l-51 23 0 120 c-1 188 -16 376 -33
408 l-15 29 -18 -32 c-12 -19 -53 -53 -104 -84 -110 -69 -234 -136 -248 -136
-6 0 -29 23 -49 50 -43 58 -96 94 -124 85 -25 -8 -24 -25 1 -25 11 0 20 -4 20
-10 0 -5 -7 -7 -15 -4 -8 4 -15 1 -15 -5 0 -15 33 -14 48 1 14 14 55 -20 79
-65 23 -45 7 -43 -21 2 -28 44 -39 51 -34 24 2 -14 -7 -18 -51 -21 -47 -3 -53
-2 -47 13 3 9 6 58 6 108 0 91 0 92 29 112 17 11 28 21 26 23 -2 2 -16 -5 -31
-14 -23 -15 -28 -16 -32 -4 -9 26 -51 60 -74 60 -21 -1 -20 -3 15 -34z m663
-341 c8 -136 13 -249 10 -252 -3 -3 -11 -1 -18 4 -7 6 -25 13 -40 17 -25 6
-27 10 -33 82 -11 109 1 226 32 321 15 45 28 81 30 79 2 -2 11 -115 19 -251z
m-2236 165 c0 -5 -5 -10 -11 -10 -5 0 -7 5 -4 10 3 6 8 10 11 10 2 0 4 -4 4
-10z m675 -29 c5 -9 -9 -23 -30 -28 -5 -1 -95 -20 -198 -42 -405 -86 -545
-130 -772 -240 -126 -61 -611 -317 -904 -477 -24 -13 -46 -23 -48 -20 -7 6 67
60 227 165 85 55 164 107 175 114 118 80 500 282 636 335 145 57 342 115 549
161 154 34 352 52 365 32z m952 -13 c-3 -8 -6 -5 -6 6 -1 11 2 17 5 13 3 -3 4
-12 1 -19z m-1547 -18 c-20 -13 -40 -13 -40 0 0 6 12 10 28 10 21 0 24 -2 12
-10z m1150 -26 c22 -9 40 -20 40 -25 0 -9 -69 17 -84 32 -14 13 -2 11 44 -7z
m460 -16 c52 -3 55 -4 66 -38 29 -89 36 -112 31 -116 -8 -9 -189 68 -208 89
-18 20 -17 43 2 31 15 -9 39 28 33 51 -6 18 -5 19 7 3 10 -12 32 -18 69 -20z
m-495 -67 c46 -21 88 -48 94 -60 10 -18 7 -22 -18 -36 -38 -19 -41 -19 -41 6
0 11 -4 17 -10 14 -5 -3 -10 -17 -10 -31 0 -14 -7 -27 -17 -31 -10 -4 -27 -15
-37 -25 -19 -17 -19 -19 -1 -57 26 -58 52 -83 78 -75 17 5 19 3 11 -6 -11 -11
-174 -70 -193 -70 -5 0 0 39 10 88 20 93 24 233 10 295 -9 38 -9 39 15 33 14
-4 63 -24 109 -45z m180 19 c3 -5 2 -10 -4 -10 -5 0 -13 5 -16 10 -3 6 -2 10
4 10 5 0 13 -4 16 -10z m137 -59 c21 -7 43 -9 49 -6 6 4 63 -14 127 -41 213
-86 215 -109 4 -44 -174 54 -242 84 -242 106 0 11 4 14 13 7 6 -5 29 -15 49
-22z m23 -91 c5 -4 23 -10 40 -12 l29 -3 -3 -90 c-3 -103 -10 -125 -32 -99 -9
11 -14 41 -14 81 -1 47 -5 68 -16 77 -9 6 -14 17 -12 24 3 6 1 12 -4 12 -4 0
-19 9 -33 20 l-25 20 30 -10 c16 -6 34 -15 40 -20z m-215 -57 c19 -8 29 -17
22 -20 -6 -3 -10 -9 -6 -14 7 -12 -100 -62 -124 -57 -10 2 -23 21 -31 45 -13
35 -13 44 -1 58 16 19 80 14 140 -12z m960 -88 c14 -8 21 -14 15 -14 -5 0 -21
6 -35 14 -14 8 -20 14 -15 14 6 0 21 -6 35 -14z m-35 -19 c19 -8 35 -17 35
-20 0 -7 -63 15 -74 25 -14 13 0 11 39 -5z m-481 -152 c25 -47 46 -88 46 -90
0 -4 -86 -44 -94 -44 -1 0 -10 16 -20 35 -19 34 -19 38 -3 89 9 29 17 62 17
74 0 12 2 22 4 22 2 0 25 -39 50 -86z m-524 61 c0 -6 -25 -16 -70 -30 -25 -8
-25 -8 -6 14 17 18 76 31 76 16z m760 -15 c6 -11 8 -20 6 -20 -3 0 -10 9 -16
20 -6 11 -8 20 -6 20 3 0 10 -9 16 -20z m-600 -60 c22 -22 27 -69 8 -88 -33
-33 -100 2 -100 53 0 53 53 74 92 35z m750 -71 c0 -17 -4 -28 -10 -24 -5 3
-10 17 -10 31 0 13 5 24 10 24 6 0 10 -14 10 -31z m-193 -254 c58 -99 108
-187 111 -195 4 -11 -63 60 -75 79 -1 2 -13 -9 -26 -24 l-24 -28 -30 44 c-44
65 -163 268 -163 278 0 13 50 30 79 28 19 -2 42 -34 128 -182z m-517 95 c0 -5
-7 -10 -16 -10 -8 0 -12 5 -9 10 3 6 10 10 16 10 5 0 9 -4 9 -10z m299 -17
c10 -19 9 -22 -4 -17 -8 3 -12 10 -9 15 3 5 0 9 -6 9 -6 0 -8 5 -5 11 8 12 8
12 24 -18z m-464 -7 c18 -27 11 -52 -17 -67 -46 -25 -88 32 -53 71 24 27 51
25 70 -4z m205 -46 c0 -5 -4 -10 -10 -10 -5 0 -10 5 -10 10 0 6 5 10 10 10 6
0 10 -4 10 -10z m327 -182 c-3 -8 -6 -5 -6 6 -1 11 2 17 5 13 3 -3 4 -12 1
-19z m215 -40 c-15 -15 -26 -4 -18 18 5 13 9 15 18 6 9 -9 9 -15 0 -24z m-387
-69 c-9 -40 -21 -78 -26 -84 -8 -7 -10 -4 -6 10 4 11 14 51 23 88 22 90 29 80
9 -14z m-285 61 c0 -5 -7 -10 -16 -10 -8 0 -12 5 -9 10 3 6 10 10 16 10 5 0 9
-4 9 -10z m71 -10 c31 -25 12 -26 -21 0 -14 11 -20 20 -14 20 7 0 22 -9 35
-20z m-71 -22 c0 21 44 13 68 -12 12 -13 22 -36 22 -52 0 -31 -35 -74 -60 -74
-9 0 -21 -5 -28 -12 -9 -9 -12 -9 -12 0 0 6 -11 22 -25 36 -31 31 -32 74 -4
105 17 18 23 20 30 9 6 -10 9 -10 9 0z m620 -47 c0 -11 5 -23 10 -26 11 -7 4
-25 -9 -25 -11 0 -32 50 -26 61 10 16 25 10 25 -10z m-732 -79 c2 -7 -4 -11
-18 -10 -14 2 -27 -5 -34 -17 -12 -22 -28 -36 -34 -30 -2 2 1 20 8 40 11 32
15 36 43 33 17 -2 32 -9 35 -16z m74 -83 c13 -34 22 -172 14 -204 -6 -25 -9
-26 -24 -12 -23 20 -66 29 -93 19 -21 -8 -21 -9 -3 -16 18 -8 18 -9 -4 -17
-18 -7 -23 -15 -20 -36 2 -18 -2 -27 -10 -25 -17 3 -15 -15 8 -73 16 -41 19
-45 20 -22 0 20 5 27 19 27 26 0 38 -20 20 -34 -14 -10 -35 -84 -44 -152 -5
-39 -39 -130 -64 -170 l-19 -31 -96 33 c-95 33 -130 37 -58 7 32 -13 34 -17
18 -23 -16 -5 -4 -13 52 -35 39 -15 69 -31 67 -35 -3 -4 3 -7 12 -6 19 1 26
-14 14 -33 -9 -13 -83 13 -437 154 -31 13 -50 32 -42 41 3 2 31 -5 63 -16 78
-27 82 -19 5 10 -33 12 -58 26 -55 30 3 4 -2 10 -10 14 -8 3 -15 10 -15 16 0
5 30 -1 66 -15 86 -32 93 -31 22 4 -75 36 -79 41 -124 117 -73 125 -198 220
-343 260 -68 19 -80 44 -26 55 29 5 29 6 -13 13 -23 4 -40 12 -37 16 12 19
-16 19 -32 0 -10 -11 -23 -20 -30 -20 -16 0 10 54 57 119 31 43 32 43 78 36
26 -3 107 -22 180 -42 109 -30 137 -34 153 -25 22 14 29 15 47 4 10 -7 11 -19
2 -58 -16 -73 -17 -76 -37 -65 -46 23 -75 32 -163 50 -92 19 -96 19 -130 1
l-35 -19 54 6 c40 5 52 3 47 -5 -5 -8 3 -12 26 -12 29 0 97 -15 153 -35 13 -4
12 -1 -5 9 -29 18 -23 20 15 6 14 -5 30 -22 36 -37 6 -20 17 -28 34 -29 14 -1
42 -10 63 -20 20 -10 39 -19 42 -19 7 -2 42 -15 65 -25 43 -18 67 -21 80 -10
11 9 35 1 116 -41 55 -29 109 -64 119 -76 22 -28 35 -30 21 -4 -14 26 -179
126 -221 134 -19 4 -57 18 -84 32 -33 17 -57 23 -74 18 -17 -4 -23 -2 -18 6 5
7 0 11 -13 11 -12 0 -21 5 -21 11 0 7 -9 9 -21 6 -21 -6 -21 -3 -16 59 2 36 7
67 9 70 3 2 35 -9 72 -26 38 -16 74 -30 81 -30 7 0 76 -24 152 -54 76 -29 141
-52 144 -50 4 2 21 41 39 86 18 46 40 89 48 95 9 7 13 15 10 19 -4 3 0 23 7
45 8 22 10 39 5 39 -6 0 -10 6 -10 14 0 25 82 -6 92 -35z m458 17 c0 -3 -4 -8
-10 -11 -5 -3 -10 -1 -10 4 0 6 5 11 10 11 6 0 10 -2 10 -4z m-49 -59 c-13
-13 -15 1 -4 30 7 17 8 17 11 -1 2 -10 -1 -23 -7 -29z m-2405 2 c3 -6 14 -9
24 -6 24 6 115 -75 107 -96 -10 -27 -69 -31 -115 -8 -23 12 -55 21 -72 21 -18
0 -29 4 -25 10 9 14 -1 12 -35 -5 -35 -18 -39 -7 -9 21 13 11 36 19 58 19 32
0 36 3 39 28 3 28 16 35 28 16z m-166 -9 c0 -5 7 -10 16 -10 11 0 5 -13 -21
-42 l-36 -43 68 -7 c37 -3 78 -4 91 -1 12 3 40 -2 62 -11 22 -9 51 -16 64 -16
22 0 66 -40 66 -60 0 -4 -41 -22 -91 -40 -90 -32 -212 -105 -258 -154 -14 -14
-43 -54 -65 -89 -36 -55 -50 -67 -121 -103 -44 -22 -91 -43 -105 -47 -13 -3
-22 -9 -19 -12 3 -3 54 15 114 40 59 25 110 44 112 42 11 -12 -14 -37 -57 -57
-58 -27 -61 -38 -5 -15 20 9 40 14 43 11 11 -11 -20 -34 -83 -61 -36 -15 -64
-29 -62 -32 2 -2 25 6 51 17 53 22 60 24 52 11 -3 -4 6 -6 19 -3 47 9 26 -19
-37 -49 -35 -16 -52 -27 -38 -23 14 4 37 13 52 20 35 18 48 17 24 -1 -18 -14
-18 -18 24 -132 59 -163 218 -532 220 -509 0 4 -23 71 -50 149 -28 77 -49 142
-47 144 11 10 169 -457 162 -476 -3 -7 0 -20 6 -27 9 -11 8 -18 -1 -29 -11
-13 -10 -14 4 -9 21 8 21 -4 -1 -28 -19 -21 -39 -23 -46 -5 -3 6 -6 2 -6 -9
-1 -12 6 -27 14 -34 8 -7 15 -19 15 -27 0 -8 4 -12 9 -9 5 3 7 14 4 24 -3 15
8 25 52 46 52 24 55 28 40 42 -12 13 -19 14 -28 5 -13 -13 -27 -15 -27 -3 0 8
68 45 113 62 28 10 28 10 11 42 -22 43 -28 49 -19 18 4 -14 5 -23 2 -20 -3 3
-26 68 -52 145 -45 134 -61 205 -47 205 42 -1 56 -18 116 -139 70 -139 94
-206 71 -197 -7 2 -16 -2 -19 -11 -9 -24 0 -27 26 -9 32 22 41 20 36 -9 -4
-17 -1 -25 8 -25 14 0 18 -12 15 -38 -1 -7 4 -11 10 -10 15 3 89 -159 92 -200
2 -25 -1 -27 -37 -30 -33 -3 -38 -1 -32 13 6 17 -20 85 -33 85 -4 0 -60 -18
-125 -40 -65 -22 -122 -38 -126 -35 -5 3 -13 -2 -18 -10 -7 -14 -12 -13 -35 6
-58 44 -92 150 -56 170 17 9 18 12 5 24 -17 18 -112 257 -126 318 -5 24 -23
76 -41 117 -17 41 -33 94 -36 118 -2 23 -11 55 -19 70 -7 15 -14 35 -14 44 0
9 -5 20 -10 23 -6 3 -7 17 -4 31 4 14 2 24 -5 24 -6 0 -11 14 -11 30 0 17 -4
30 -10 30 -5 0 -10 14 -10 30 0 17 -4 30 -9 30 -11 0 -261 -104 -304 -127 -25
-12 -27 -16 -15 -30 11 -14 11 -16 -4 -10 -14 5 -19 0 -24 -21 -4 -15 -13 -34
-21 -43 -27 -31 -51 -114 -74 -252 -22 -135 -23 -138 -53 -154 -17 -9 -48 -30
-69 -46 l-38 -31 -24 25 c-20 20 -27 42 -38 120 -14 101 -13 119 8 119 16 0
20 11 40 98 12 51 13 72 5 93 -9 20 -9 33 -1 47 6 12 11 32 11 46 0 41 10 58
26 45 8 -7 16 -10 17 -8 1 2 13 20 27 39 16 23 24 49 24 74 1 33 -6 43 -44 76
l-44 37 11 86 c7 47 17 94 22 104 22 39 40 94 35 108 -6 16 92 92 168 131 57
29 138 32 198 8 44 -18 50 -29 21 -39 -12 -4 -18 -12 -14 -21 6 -17 -8 -19
-24 -3 -7 7 -13 7 -17 0 -4 -5 3 -15 15 -22 18 -9 25 -9 33 3 6 7 19 12 29 10
9 -2 17 1 17 7 0 6 7 11 15 11 8 0 23 4 33 9 38 21 86 41 97 41 15 0 65 45 65
59 0 5 -9 7 -19 4 -13 -3 -18 -10 -14 -21 5 -12 2 -14 -11 -9 -27 11 -68 -3
-61 -20 4 -12 0 -14 -21 -9 -21 6 -25 4 -21 -8 8 -21 1 -20 -34 4 -44 32 -111
59 -152 62 -20 1 -37 5 -37 8 1 13 224 104 300 122 47 11 101 25 120 33 44 17
50 17 50 5z m250 0 c0 -5 -2 -10 -4 -10 -3 0 -8 5 -11 10 -3 6 -1 10 4 10 6 0
11 -4 11 -10z m2576 -16 c-11 -7 -22 -11 -25 -8 -3 3 3 12 13 20 11 7 22 11
25 8 3 -3 -3 -12 -13 -20z m-1904 -44 c-9 -27 -19 -50 -23 -50 -6 0 -44 55
-57 82 -2 4 14 9 35 11 21 2 43 4 50 5 8 1 6 -13 -5 -48z m-4632 0 c19 -5 49
-21 65 -35 l30 -26 -70 5 c-463 36 -727 3 -1135 -140 -72 -25 -134 -43 -137
-40 -11 11 201 104 342 149 148 47 305 81 445 97 103 11 411 5 460 -10z m4370
-18 c-19 -2 -29 -12 -38 -34 -16 -44 -23 -31 -9 18 10 41 11 42 41 30 31 -11
31 -11 6 -14z m-110 -12 c6 -11 7 -20 3 -20 -5 0 -14 9 -21 20 -7 11 -8 20 -2
20 5 0 14 -9 20 -20z m-97 -27 l18 -32 -27 -17 c-26 -18 -27 -17 -45 7 -10 13
-24 31 -32 40 -12 14 -11 17 12 27 39 15 53 10 74 -25z m296 18 c9 -6 10 -10
2 -16 -15 -8 -41 1 -41 15 0 12 20 13 39 1z m81 -31 c0 -13 -28 -25 -38 -16
-3 4 0 11 8 16 20 13 30 12 30 0z m200 -4 c0 -3 -4 -8 -10 -11 -5 -3 -10 -1
-10 4 0 6 5 11 10 11 6 0 10 -2 10 -4z m1110 -66 c8 -5 12 -11 9 -14 -3 -3
-14 1 -25 9 -21 16 -8 20 16 5z m-2310 -10 c0 -5 -5 -10 -11 -10 -5 0 -7 5 -4
10 3 6 8 10 11 10 2 0 4 -4 4 -10z m1214 -25 c97 -17 165 -50 235 -113 92 -82
59 -84 -144 -11 -86 31 -99 33 -265 37 -97 2 -222 -1 -280 -7 -113 -12 -283
-41 -277 -47 2 -2 66 6 143 17 116 17 178 20 369 17 l230 -3 148 -49 147 -48
34 -72 c19 -39 37 -91 41 -116 3 -25 11 -68 17 -97 10 -49 7 -81 -17 -148 -7
-20 -6 -20 9 -1 25 31 18 5 -13 -50 -28 -48 -122 -144 -142 -144 -5 0 -9 -6
-9 -13 0 -25 -112 -81 -158 -78 -21 1 -31 -2 -27 -8 23 -38 -424 -56 -634 -26
-150 22 -250 51 -322 93 -66 39 -182 141 -201 176 -6 12 9 3 35 -21 76 -70 72
-51 -5 30 -15 15 -33 47 -39 70 -13 48 -6 207 11 252 14 37 85 125 118 147 26
17 26 18 5 18 -33 0 -28 18 16 61 60 56 189 97 421 133 117 19 453 19 554 1z
m1146 -36 c0 -32 -3 -39 -19 -39 -11 0 -23 5 -26 10 -3 6 1 10 9 10 16 0 20
16 16 54 -1 11 3 15 9 12 6 -4 11 -25 11 -47z m-1905 32 c-6 -5 -55 -28 -109
-52 -160 -69 -243 -169 -288 -342 -18 -72 -18 -72 -12 -17 14 122 78 230 186
313 35 26 80 52 100 57 20 6 56 19 80 30 48 22 56 24 43 11z m1043 -94 c58
-56 93 -109 123 -188 23 -59 40 -167 27 -175 -4 -3 -9 10 -9 28 l-1 33 -8 -30
-7 -30 -7 40 c-4 22 -11 52 -16 68 -5 16 -5 27 0 27 5 0 12 -11 16 -25 4 -14
9 -24 11 -21 10 10 -49 153 -84 205 -37 53 -107 113 -170 145 -18 9 -33 19
-33 21 0 15 111 -54 158 -98z m352 83 c0 -5 -4 -10 -10 -10 -5 0 -10 5 -10 10
0 6 5 10 10 10 6 0 10 -4 10 -10z m-7170 -61 c0 -4 -12 -9 -26 -12 -19 -3 -24
-1 -20 10 3 8 6 19 6 24 0 5 9 4 20 -3 11 -7 20 -16 20 -19z m89 -77 c6 -11 1
-26 -16 -49 -14 -18 -29 -33 -34 -33 -5 0 -9 29 -9 65 l0 65 25 -16 c14 -9 29
-24 34 -32z m-79 19 c0 -11 -5 -23 -11 -27 -15 -9 -33 12 -26 30 9 23 37 20
37 -3z m7669 -79 c1 -24 -6 -57 -15 -73 -14 -28 -14 -32 1 -49 15 -17 15 -18
-1 -16 -13 1 -23 -19 -44 -89 -21 -72 -130 -336 -146 -354 -6 -7 -31 29 -49
69 -27 59 -32 65 -51 62 -18 -2 -18 -2 0 13 27 21 43 19 57 -6 9 -18 13 -19
25 -8 7 8 20 32 27 54 13 35 18 40 42 38 28 -2 28 -2 7 13 -12 8 -22 25 -22
36 0 20 78 223 131 343 19 42 23 47 30 30 4 -11 8 -39 8 -63z m-7821 41 c-4
-22 -48 -31 -48 -10 0 19 10 27 32 27 13 0 18 -6 16 -17z m10552 -89 c21 -21
-79 -35 -276 -39 -243 -4 -403 -32 -611 -105 -158 -56 -198 -64 -198 -41 0 58
250 150 505 186 119 17 563 16 580 -1z m-10421 -15 c-22 -14 -33 -10 -19 6 7
8 17 12 22 9 6 -4 5 -10 -3 -15z m2646 -8 c28 -15 32 -20 15 -16 -19 4 -16 1
10 -12 19 -10 36 -25 38 -33 1 -9 -26 -63 -60 -120 l-63 -105 -43 1 c-43 1
-82 27 -82 56 0 7 -10 1 -21 -14 -11 -15 -35 -36 -54 -48 -29 -18 -40 -20 -70
-11 -42 11 -39 -1 5 -19 16 -7 30 -18 30 -25 0 -7 7 -18 15 -25 8 -7 13 -16
10 -20 -3 -5 0 -12 5 -15 8 -5 5 -14 -7 -27 -10 -11 -34 -48 -54 -82 -34 -57
-38 -61 -70 -59 -27 2 -31 1 -16 -8 9 -5 17 -17 17 -26 0 -14 -4 -13 -23 5
-13 12 -29 22 -35 22 -7 0 -12 4 -12 8 0 5 -14 6 -32 4 -26 -4 -30 -2 -25 12
5 11 -3 21 -26 32 -38 20 -67 44 -67 56 0 5 6 8 13 5 14 -5 111 168 102 183
-11 18 -24 1 -66 -82 -22 -44 -42 -78 -45 -76 -2 3 15 46 38 96 37 80 46 92
68 92 14 0 31 -4 39 -9 18 -11 51 8 51 29 0 27 -31 61 -69 77 l-36 15 -42 -48
-43 -48 -202 -7 c-512 -18 -888 -22 -888 -10 0 6 11 17 25 23 27 12 33 28 12
28 -8 0 -24 -12 -38 -26 -29 -32 -124 -94 -143 -94 -7 0 -24 -8 -37 -18 -13
-10 -49 -24 -79 -31 -30 -8 -58 -18 -61 -24 -12 -17 -63 16 -72 48 -5 17 -14
38 -19 48 -5 10 -6 27 -3 38 4 10 2 19 -3 19 -5 0 -7 14 -4 31 3 23 -1 34 -18
46 l-22 15 38 39 c36 37 41 39 99 39 33 0 87 -5 120 -11 75 -14 32 -16 480 20
209 17 481 38 605 46 124 8 317 21 430 29 262 18 333 16 385 -13z m-1719 -17
c-4 -9 -9 -15 -11 -12 -3 3 -3 13 1 22 4 9 9 15 11 12 3 -3 3 -13 -1 -22z
m3202 4 c9 -8 12 -6 12 6 0 21 14 20 36 -1 10 -10 20 -18 23 -19 87 -11 123
-19 138 -30 16 -12 9 -13 -50 -14 -38 0 -77 -5 -88 -10 -14 -8 -19 -7 -19 2 0
7 -10 -5 -23 -27 -45 -80 -116 -91 -261 -38 -39 14 -82 26 -96 27 -14 2 -36 8
-50 16 -26 14 -300 16 -490 4 -52 -4 -92 -4 -89 0 8 9 338 35 442 36 63 0 87
-5 127 -25 69 -35 76 -31 12 6 -30 18 -50 35 -45 40 4 4 44 11 88 14 44 4 89
11 100 16 44 19 207 17 233 -3z m-4318 -29 c0 -18 -4 -28 -10 -24 -5 3 -10 20
-10 36 0 18 4 28 10 24 6 -3 10 -20 10 -36z m9177 -51 c-3 -8 -6 -5 -6 6 -1
11 2 17 5 13 3 -3 4 -12 1 -19z m-1922 -63 c16 -5 17 -5 5 4 -27 19 -4 12 166
-55 200 -78 226 -92 214 -113 -5 -9 -20 -16 -34 -16 -13 -1 -23 2 -20 6 2 4
-85 42 -193 86 -108 43 -199 84 -201 92 -5 14 17 13 63 -4z m601 -41 c-4 -9
-9 -15 -11 -12 -3 3 -3 13 1 22 4 9 9 15 11 12 3 -3 3 -13 -1 -22z m-7196 -14
c0 -16 4 -30 9 -30 9 0 43 -131 36 -138 -3 -4 -19 30 -53 116 -20 51 -20 82
-1 82 5 0 9 -13 9 -30z m6765 -59 c83 -33 146 -60 140 -60 -5 -1 -46 13 -90
30 -51 20 -81 27 -83 20 -2 -6 -8 -11 -14 -11 -7 0 -7 4 1 13 8 11 -2 18 -52
35 -81 29 -91 28 -83 -2 3 -14 2 -28 -4 -31 -5 -3 -10 -15 -10 -26 0 -10 -4
-27 -9 -37 -15 -30 -28 -66 -40 -110 -7 -23 -16 -40 -21 -37 -16 10 -12 31 25
158 29 95 33 122 24 134 -11 12 -7 12 27 -1 21 -9 107 -42 189 -75z m412 -13
c-3 -8 -6 -5 -6 6 -1 11 2 17 5 13 3 -3 4 -12 1 -19z m163 10 c0 -26 -79 -311
-89 -321 -5 -5 -16 -7 -24 -4 -12 4 -8 29 23 144 20 76 40 150 44 166 4 18 13
27 26 27 11 0 20 -6 20 -12z m-2630 -32 c0 -11 -19 -15 -25 -6 -3 5 1 10 9 10
9 0 16 -2 16 -4z m2093 -43 c37 -14 66 -28 64 -29 -6 -6 -82 20 -127 44 -52
27 -33 22 63 -15z m-2103 -5 c-19 -12 -39 -21 -43 -20 -4 1 -10 -4 -13 -12 -3
-8 -12 -12 -19 -10 -7 3 -29 -2 -49 -10 -34 -14 -36 -17 -25 -38 11 -21 11
-22 -4 -9 -31 25 -18 38 76 80 103 45 130 52 77 19z m2657 -3 c-23 -22 -33
-18 -12 5 10 11 20 18 23 16 2 -3 -3 -12 -11 -21z m1151 -26 c-13 -18 -48 -52
-79 -78 -31 -25 -90 -75 -130 -110 -43 -37 -14 -4 69 78 138 136 187 175 140
110z m-1738 -15 c23 -9 39 -18 37 -20 -2 -3 -24 4 -48 15 -54 24 -45 27 11 5z
m117 -9 c-4 -8 -11 -15 -17 -15 -6 0 -6 7 2 20 14 22 24 19 15 -5z m-2220 -22
c-67 -31 -77 -39 -72 -57 6 -21 6 -21 -10 -2 -19 25 -16 28 70 65 97 42 107
37 12 -6z m-4467 23 c0 -2 -16 -13 -35 -25 -33 -19 -35 -19 -25 -2 5 11 15 22
22 24 16 7 38 8 38 3z m3964 -40 c-3 -9 -10 -16 -15 -16 -6 0 -5 9 1 21 13 24
24 20 14 -5z m2674 -1 c-3 -3 -9 2 -12 12 -6 14 -5 15 5 6 7 -7 10 -15 7 -18z
m-4888 6 c0 -5 -9 -19 -21 -32 l-20 -24 17 33 c19 33 24 38 24 23z m4781 -6
c19 -8 27 -14 19 -14 -14 0 -72 28 -59 29 4 0 22 -7 40 -15z m-2026 -30 c-27
-13 -56 -24 -64 -24 -8 -1 -11 -7 -7 -17 3 -8 2 -12 -4 -9 -6 3 -10 11 -10 16
0 11 97 57 120 57 8 0 -7 -10 -35 -23z m-5527 -32 c-9 -10 -26 -41 -38 -70
-13 -32 -36 -63 -58 -80 -22 -16 -33 -21 -30 -12 10 25 131 189 136 184 3 -3
-2 -13 -10 -22z m7512 17 c8 -5 11 -10 5 -10 -5 0 -17 5 -25 10 -8 5 -10 10
-5 10 6 0 17 -5 25 -10z m-4413 -78 c101 -83 163 -121 292 -177 56 -24 111
-51 123 -59 12 -9 30 -16 38 -16 19 0 71 -47 123 -112 33 -40 38 -52 35 -90
l-3 -43 -80 2 c-57 1 -71 -1 -50 -6 40 -11 -130 -12 -200 -1 -45 7 -40 8 50
10 55 2 81 5 57 7 -39 4 -45 8 -78 61 -92 143 -246 309 -402 434 l-73 58 43 0
c38 0 52 -7 125 -68z m2450 42 c-29 -15 -45 -29 -41 -36 4 -7 3 -8 -4 -4 -22
13 -12 27 31 46 61 27 70 23 14 -6z m-3131 -45 c148 -65 171 -78 144 -78 -19
-1 -21 -4 -12 -13 7 -7 12 -18 12 -26 0 -9 -9 -7 -32 9 -18 13 -36 27 -39 31
-3 5 -18 4 -33 -2 -37 -14 -38 -13 -31 10 5 16 -4 26 -44 51 -47 28 -64 49
-42 49 4 0 39 -14 77 -31z m5369 21 c3 -5 1 -10 -4 -10 -6 0 -11 5 -11 10 0 6
2 10 4 10 3 0 8 -4 11 -10z m-2198 -21 c-22 -11 -35 -24 -31 -31 4 -6 1 -9 -6
-6 -27 9 -20 25 17 41 54 22 65 20 20 -4z m2526 1 c3 -11 1 -18 -4 -14 -5 3
-9 12 -9 20 0 20 7 17 13 -6z m-336 -22 c22 -21 24 -21 17 -3 -6 19 -6 19 15
-1 12 -12 27 -39 32 -60 12 -47 12 -50 1 -94 -6 -26 -2 -64 15 -144 26 -122
25 -150 -2 -54 -36 130 -53 163 -90 181 -48 23 -50 22 -26 -12 21 -30 42 -91
112 -331 52 -182 59 -265 31 -376 -27 -107 -255 -687 -294 -746 -60 -95 -169
-170 -291 -202 -39 -10 -161 -16 -440 -21 l-387 -8 0 39 0 39 217 -3 c120 -2
304 1 408 6 184 8 193 9 255 39 142 67 211 161 316 434 101 259 143 386 149
445 5 49 5 49 -13 -16 -11 -36 -38 -110 -62 -165 -24 -55 -59 -147 -78 -205
-72 -217 -87 -254 -120 -304 -48 -70 -104 -127 -120 -121 -7 2 -11 1 -8 -4 8
-12 -36 -39 -102 -63 -51 -18 -89 -21 -353 -25 -286 -5 -503 3 -449 17 21 5
25 12 26 43 1 51 14 60 14 9 0 -39 2 -42 26 -42 15 0 32 8 39 17 11 15 14 15
31 -5 10 -12 21 -18 24 -13 3 5 20 12 38 16 24 5 33 3 38 -9 8 -20 24 -21 24
-1 0 21 30 19 31 -2 0 -14 3 -12 10 5 9 23 29 22 29 -1 0 -8 17 -11 55 -9 38
3 55 0 55 -8 0 -9 27 -11 108 -5 59 3 133 8 164 10 38 2 72 11 100 27 24 14
48 23 54 21 6 -2 19 8 28 22 9 14 20 23 25 21 4 -3 27 22 50 54 37 53 120 253
152 367 5 17 30 72 54 121 25 50 45 98 45 107 0 9 10 45 21 81 21 65 22 133 2
213 -5 19 -3 23 9 19 12 -5 14 0 8 30 -10 50 -20 72 -32 72 -7 0 -8 18 -5 48
4 35 -3 78 -29 175 -39 147 -40 155 -18 136 15 -13 16 -8 10 51 -11 102 -12
184 -3 198 15 19 58 14 84 -10z m-5401 -59 c160 -72 170 -78 145 -78 -19 -1
-21 -3 -11 -16 25 -30 3 -34 -32 -5 -31 26 -40 29 -63 20 -35 -13 -37 -13 -30
9 5 15 -4 25 -45 48 -27 15 -50 34 -50 41 0 18 10 15 86 -19z m2475 -6 c-10
-17 -10 -16 -11 3 0 23 13 41 18 25 2 -6 -1 -18 -7 -28z m6936 21 c-3 -3 -12
-4 -19 -1 -8 3 -5 6 6 6 11 1 17 -2 13 -5z m-4177 -29 c0 -14 -2 -25 -4 -25
-2 0 -6 11 -8 25 -3 14 -1 25 3 25 5 0 9 -11 9 -25z m4207 -2 c-9 -9 -20 -13
-24 -9 -4 4 -1 11 7 16 25 16 35 11 17 -7z m-4252 -17 c16 -5 26 -24 42 -86
21 -78 21 -80 2 -80 -11 0 -27 5 -38 11 -11 7 -32 9 -54 5 -40 -7 -57 -24 -37
-36 9 -6 9 -12 -1 -28 -11 -17 -10 -23 1 -37 10 -12 11 -18 2 -24 -7 -4 -3
-17 14 -39 22 -27 32 -32 69 -32 25 0 45 -5 48 -12 3 -8 6 -6 6 5 1 9 -5 17
-11 18 -7 0 -2 5 11 10 36 14 56 -11 82 -104 31 -115 38 -165 27 -205 -13 -45
-19 -37 -9 11 5 21 5 37 0 37 -5 0 -9 -7 -9 -15 0 -25 -17 -17 -25 12 -3 15
-20 47 -36 71 -22 33 -29 54 -29 93 0 28 -4 48 -9 44 -5 -3 -12 -1 -16 5 -8
14 -38 13 -53 -2 -14 -14 -18 -15 -140 -27 -74 -7 -101 -15 -133 -35 -21 -15
-39 -22 -39 -16 0 6 -11 16 -25 22 -30 14 -32 41 -4 69 14 14 18 27 13 41 -6
19 -3 20 25 15 29 -6 30 -5 25 22 -6 27 -4 28 21 23 26 -5 27 -3 21 23 -7 26
-5 27 19 21 22 -6 25 -3 25 19 0 20 5 25 25 25 22 0 25 3 19 27 -7 25 -6 26
26 20 34 -7 33 -9 13 40 -4 10 3 11 26 7 34 -7 37 -3 20 27 -10 19 -8 20 26
13 l37 -7 -17 33 c-18 35 -22 34 40 16z m-5140 -87 c68 -29 76 -34 52 -37 -28
-3 -28 -4 -11 -23 9 -10 12 -19 7 -19 -6 0 -16 7 -23 15 -6 8 -46 31 -88 50
-97 46 -124 63 -117 75 6 10 42 -2 180 -61z m2930 -69 c-1 -69 3 -100 11 -100
23 0 -2 -242 -32 -301 -7 -14 -33 -48 -58 -76 -25 -28 -46 -54 -46 -58 0 -4
26 -5 58 -1 l57 5 -42 -15 c-23 -8 -70 -42 -105 -75 -73 -69 -46 -61 59 18 72
53 73 54 165 62 51 5 74 9 51 10 -24 0 -43 6 -43 11 0 6 52 10 135 10 l135 0
0 -105 c0 -105 0 -105 -24 -105 -14 0 -28 -4 -31 -10 -4 -6 5 -7 23 -4 l29 6
6 -123 c10 -180 9 -221 -5 -217 -18 6 -68 -42 -84 -81 -8 -19 -12 -36 -10 -38
5 -5 30 37 31 51 0 5 11 15 25 24 l25 14 -25 -21 -25 -21 32 6 c20 4 39 2 48
-6 11 -9 15 -9 15 -1 0 7 5 9 10 6 6 -3 10 1 10 9 0 21 12 20 52 -3 30 -17
253 -50 264 -39 2 3 -31 13 -74 23 -42 10 -71 20 -64 22 17 6 15 30 -4 37 -19
7 -37 -2 -29 -15 10 -15 -12 -10 -25 6 -7 8 -17 15 -22 15 -6 0 -8 -7 -4 -15
10 -26 -24 -17 -36 10 -12 27 -33 35 -65 23 l-23 -8 0 261 0 260 185 -3 c119
-2 181 0 174 7 -5 5 -85 10 -184 10 -142 0 -175 3 -175 14 0 11 24 12 138 7
75 -4 180 -7 232 -7 108 0 164 -14 157 -40 -4 -13 1 -17 17 -15 30 3 48 15 40
28 -8 13 12 2 40 -21 18 -15 18 -15 12 9 l-8 25 19 -25 c16 -22 24 -25 71 -22
78 5 146 -21 198 -76 24 -25 46 -54 50 -64 9 -30 21 -20 27 23 7 50 15 59 31
37 11 -15 12 -10 8 32 -3 36 -1 51 9 55 8 3 55 -3 104 -13 73 -15 91 -21 93
-37 5 -25 31 -55 48 -55 18 0 44 29 43 48 0 14 -3 13 -16 -6 -26 -38 -63 -24
-63 24 0 10 14 14 54 14 38 0 60 6 79 20 14 11 32 20 41 20 10 0 16 9 16 25 0
28 23 79 47 107 14 16 17 16 49 1 29 -15 37 -15 60 -2 31 16 74 76 74 101 0
70 182 22 252 -67 20 -25 20 -26 2 -40 -11 -8 -26 -14 -34 -12 -21 3 -25 39
-5 53 11 9 13 14 4 19 -16 11 -29 -14 -29 -56 0 -34 2 -36 34 -34 l33 1 -13
-50 c-7 -28 -12 -52 -10 -53 5 -5 36 75 36 92 0 8 5 15 11 15 14 0 5 -110 -11
-141 -6 -10 -26 -29 -44 -42 -18 -12 -52 -35 -76 -52 -23 -16 -63 -33 -89 -36
-45 -7 -44 -7 14 -6 36 1 68 7 80 16 15 12 17 12 8 1 -7 -8 -12 -25 -12 -40 2
-23 2 -23 6 -2 6 28 40 49 56 33 6 -6 16 -11 21 -11 6 0 0 9 -14 20 l-25 20
24 0 c14 0 35 10 48 22 13 12 23 17 23 12 0 -29 -141 -206 -254 -320 -84 -84
-314 -247 -351 -249 -11 0 -31 -8 -45 -17 -48 -32 -179 -90 -192 -85 -8 4 -4
8 10 13 40 12 179 82 186 93 4 6 -14 0 -40 -14 -26 -14 -53 -25 -61 -25 -7 0
-21 -5 -31 -11 -12 -7 -66 -8 -175 -2 -88 4 -163 5 -169 2 -11 -7 113 -18 221
-20 l76 -1 -55 -9 c-32 -5 -91 -4 -143 2 -49 6 -95 8 -104 5 -36 -14 -363 -36
-540 -36 -192 0 -223 3 -223 23 0 23 -56 96 -78 102 -41 10 -89 -14 -132 -65
-46 -55 -13 -47 -310 -76 -196 -20 -279 -20 -314 -2 -26 14 -101 108 -112 140
-3 10 -10 16 -15 13 -5 -3 -6 0 -4 7 3 8 -2 22 -10 33 -14 19 -15 17 -9 -20
11 -67 43 -136 86 -187 22 -27 38 -51 36 -54 -3 -2 -30 3 -59 13 l-54 18 -82
160 -82 160 76 83 c46 50 79 79 86 75 18 -11 38 -12 31 -2 -3 5 -10 6 -16 3
-6 -4 -9 -3 -7 3 5 12 360 339 385 353 4 3 9 12 9 21 1 9 -115 -90 -258 -220
-142 -130 -274 -247 -292 -261 -71 -55 -346 -330 -330 -330 13 0 15 -5 10 -17
-16 -38 -17 -69 -1 -82 9 -8 16 -17 16 -22 0 -17 -89 -20 -184 -4 -74 11 -112
13 -151 6 -29 -6 -140 -13 -247 -17 -118 -4 -208 -12 -233 -20 -51 -17 -83
-17 -115 1 -14 8 -44 14 -67 15 -23 0 -45 6 -50 13 -4 6 -11 46 -14 87 l-6 75
-1 -87 c-2 -76 -4 -88 -19 -88 -10 0 -99 -20 -198 -44 -174 -43 -188 -44 -420
-55 -132 -6 -345 -14 -473 -17 -128 -4 -230 -9 -228 -12 3 -2 69 -5 148 -5 79
0 116 -2 83 -4 -79 -4 -105 -11 -102 -26 1 -8 -23 -15 -76 -21 -102 -12 -96
-29 13 -36 71 -4 84 -8 91 -25 5 -14 8 -8 9 25 l1 45 18 -22 c19 -23 55 -31
65 -14 3 5 -4 11 -16 14 -18 5 -19 8 -8 22 12 14 15 14 30 0 22 -20 33 -19 55
5 16 17 31 20 107 20 48 0 88 -4 88 -8 0 -21 -123 -141 -207 -204 -90 -66 -98
-77 -105 -137 -3 -20 -14 -28 -68 -47 -49 -18 -56 -22 -26 -17 30 4 38 3 34
-8 -7 -23 -142 -33 -288 -23 -145 10 -140 12 -140 -58 l0 -41 -42 7 c-42 7
-77 26 -48 26 8 0 -22 15 -66 33 -134 54 -284 151 -284 182 0 27 19 24 79 -15
79 -51 272 -150 293 -150 20 0 32 29 15 35 -184 65 -219 81 -306 139 -29 20
-57 36 -62 36 -5 0 -16 -14 -25 -32 l-17 -32 -31 36 c-81 94 -141 172 -191
251 l-17 27 29 0 c25 0 33 -7 51 -43 11 -23 29 -51 39 -62 10 -11 30 -36 45
-56 15 -20 36 -39 48 -42 16 -4 10 7 -25 51 -26 32 -59 75 -75 98 l-29 41 317
8 c174 4 376 11 447 15 77 5 22 5 -135 1 -502 -12 -781 -6 -1124 26 -66 6 -69
7 -82 39 -8 18 -14 65 -14 103 l0 69 218 6 c119 4 336 11 482 17 745 27 1548
49 1818 49 169 0 302 4 302 9 0 17 -424 23 -795 12 -532 -17 -1738 -59 -1888
-67 -120 -6 -127 -6 -127 12 1 45 -2 45 280 80 326 40 469 53 725 64 132 6
295 13 363 16 68 4 121 9 118 12 -3 2 -132 5 -285 6 -154 1 -273 -2 -263 -6 9
-4 -28 -7 -83 -7 -95 -1 -339 -25 -379 -37 -18 -6 -19 -2 -12 77 14 167 69
374 126 474 38 66 48 74 96 79 98 9 143 21 194 51 171 102 264 128 445 128 83
0 149 -6 182 -15 51 -14 51 -14 56 8 2 15 -3 30 -14 40 -28 26 -23 36 15 29
29 -6 35 -4 41 15 5 16 0 28 -20 46 -32 30 -28 39 9 24 43 -16 56 -12 56 14 0
27 -32 55 -65 57 -17 1 -16 2 5 8 14 4 41 2 63 -5 37 -13 37 -13 37 15 0 15
-9 36 -20 46 -11 10 -20 22 -20 26 0 11 12 7 149 -49 98 -41 110 -47 82 -50
-18 -2 -60 6 -93 17 -34 12 -63 19 -65 18 -1 -2 -4 -14 -5 -27 -3 -20 6 -27
71 -54 65 -27 71 -31 46 -34 -16 -2 -35 -12 -42 -22 -19 -27 -68 -12 -68 21 0
29 -39 40 -49 13 -9 -23 -3 -28 79 -63 67 -29 74 -36 31 -31 -11 1 -27 -8 -36
-19 -14 -19 -19 -20 -48 -10 -27 9 -31 15 -26 35 5 20 2 24 -15 24 -11 0 -25
-9 -31 -20 -6 -11 -9 -20 -8 -20 2 0 39 -16 83 -35 64 -28 74 -35 50 -35 -18
0 -38 -8 -47 -19 -13 -15 -23 -18 -45 -12 -23 6 -27 13 -25 34 2 21 -2 27 -16
27 -22 0 -47 -25 -38 -38 3 -5 38 -22 78 -38 67 -27 70 -29 41 -32 -20 -2 -37
-11 -43 -22 -15 -28 -70 -8 -70 25 0 31 -27 40 -41 14 -14 -26 -10 -29 76 -65
66 -27 68 -29 37 -32 -18 -2 -36 -10 -39 -18 -6 -16 -36 -18 -63 -4 -12 6 -17
16 -13 26 8 20 -17 36 -34 22 -25 -21 -12 -36 64 -72 l78 -36 -45 4 c-25 2
-54 7 -65 10 -11 4 3 -4 30 -17 40 -20 46 -26 32 -32 -11 -5 -44 5 -92 29 -95
45 -88 28 8 -21 51 -26 66 -38 52 -41 -11 -1 -30 -19 -43 -40 -33 -54 -69
-104 -94 -130 -17 -19 -28 -22 -54 -18 -23 5 -33 2 -38 -9 -3 -8 -1 -15 4 -15
5 0 17 -12 25 -27 14 -24 16 -25 12 -5 -3 13 -1 20 5 16 15 -10 -2 -87 -24
-106 -25 -22 -91 -24 -108 -3 -7 8 -20 15 -29 15 -21 0 -111 -56 -111 -69 0
-6 -21 -12 -47 -14 -27 -2 3 -4 65 -5 81 -1 111 1 106 9 -16 27 67 40 109 17
36 -19 380 -37 742 -38 318 0 353 -2 535 -29 157 -22 209 -26 265 -20 39 5
201 13 360 17 315 10 330 13 429 73 30 18 189 151 353 297 598 531 648 580
710 704 15 29 32 60 39 68 14 18 50 121 59 172 7 36 7 36 28 17 20 -16 22 -28
22 -119z m102 -17 c-2 -32 -3 -8 -3 52 0 61 1 87 3 58 2 -29 2 -78 0 -110z
m83 138 c-14 -27 -13 -44 3 -38 6 2 22 8 35 12 23 7 23 7 7 -25 l-16 -31 37 7
c34 6 36 6 25 -14 -18 -34 -14 -43 15 -32 35 14 34 14 28 -19 -6 -26 -4 -28
20 -24 33 7 33 -10 0 -36 -43 -34 -137 -27 -188 14 -20 16 -26 27 -20 36 5 8
9 42 9 77 0 51 4 66 19 78 28 20 39 17 26 -5z m6313 12 c-7 -2 -19 -2 -25 0
-7 3 -2 5 12 5 14 0 19 -2 13 -5z m-4208 -103 c9 -41 19 -84 21 -95 4 -16 3
-17 -4 -5 -9 14 -52 179 -52 197 1 21 19 -29 35 -97z m-5299 4 c56 -34 57 -36
24 -31 -37 6 -36 6 45 -30 l40 -17 -31 -4 c-21 -2 -34 -10 -37 -22 -4 -16 -12
-18 -43 -14 -37 5 -37 4 16 -18 51 -21 53 -23 25 -26 -16 -2 -34 -11 -41 -20
-11 -15 -15 -14 -54 3 -23 10 -65 41 -93 68 l-52 49 42 -6 c37 -5 42 -4 49 16
5 17 0 27 -22 46 l-29 24 48 -6 c37 -4 47 -3 47 9 0 20 -1 20 66 -21z m-349
16 c100 -14 223 -41 223 -51 0 -4 -16 -3 -35 2 -19 6 -47 12 -63 14 -15 2 -31
4 -37 6 -13 4 -230 -10 -272 -18 -22 -3 -30 -9 -26 -19 3 -9 -3 -14 -18 -16
-13 0 -4 -4 21 -7 43 -6 41 -7 -55 -25 -181 -33 -229 -46 -334 -96 -173 -83
-301 -186 -410 -330 -147 -195 -221 -419 -221 -666 l0 -94 -34 0 c-18 0 -48
-3 -65 -6 l-31 -6 0 111 c0 212 37 367 135 560 45 90 169 254 242 321 270 247
634 365 980 320z m2945 -55 c3 -25 18 -63 33 -86 29 -45 26 -67 -16 -118 l-19
-24 -50 34 c-28 19 -50 39 -50 45 0 23 34 110 57 142 12 19 23 41 23 49 0 33
18 0 22 -42z m2293 -5 c-9 -24 -29 -65 -45 -90 -16 -25 -38 -70 -50 -100 l-22
-55 29 -22 c15 -13 23 -23 18 -23 -11 0 -36 -56 -42 -93 -2 -10 -14 -40 -28
-67 -29 -56 -31 -67 -11 -51 8 7 25 37 37 67 13 30 29 54 36 54 17 0 17 0 -11
-64 -19 -43 -33 -59 -65 -75 -59 -30 -64 -28 -57 23 6 39 4 46 -13 56 -21 11
-215 80 -225 80 -3 0 -19 -27 -36 -59 -25 -50 -33 -58 -51 -54 -11 3 -23 12
-26 20 -5 12 74 228 96 262 6 9 18 11 35 7 22 -5 25 -10 19 -36 -3 -20 -1 -30
6 -30 7 0 10 4 7 8 -2 4 -1 14 3 21 7 10 14 10 37 -2 52 -27 198 -80 225 -82
21 -2 25 1 22 15 -3 12 -11 16 -24 13 -10 -3 -19 -1 -19 5 0 6 -35 25 -77 42
-43 18 -80 34 -82 36 -12 11 70 -12 116 -32 48 -21 51 -21 41 -4 -12 19 -1 82
38 216 14 50 15 50 67 60 28 5 55 7 60 4 4 -4 0 -26 -8 -50z m-248 26 c-2 -6
-12 -37 -21 -68 -17 -60 -30 -79 -21 -30 4 21 1 19 -15 -13 -11 -22 -20 -45
-20 -52 0 -27 -50 -25 -50 3 0 8 -6 11 -15 8 -8 -4 -15 -2 -15 2 0 8 33 118
45 152 3 9 22 12 60 11 35 -2 54 -6 52 -13z m-568 -38 c1 -12 -27 -9 -34 2 -4
6 -1 18 6 26 12 14 14 14 20 -3 4 -10 8 -21 8 -25z m146 23 c6 -20 -8 -65 -24
-75 -22 -14 -54 68 -34 87 14 14 52 7 58 -12z m109 3 c17 -7 10 -34 -9 -34
-17 0 -28 17 -20 30 7 12 8 12 29 4z m-22 -84 c-1 -18 3 -39 9 -46 17 -21 5
-28 -28 -16 -16 5 -26 15 -24 23 1 8 4 23 5 35 7 53 43 58 38 4z m986 23 c13
-26 23 -83 14 -83 -17 0 -42 42 -42 70 0 33 14 40 28 13z m-1193 -23 c19 -37
19 -56 -1 -64 -21 -8 -20 -10 -27 47 -8 54 5 62 28 17z m5542 14 c-3 -3 -12
-4 -19 -1 -8 3 -5 6 6 6 11 1 17 -2 13 -5z m-10219 -21 c-10 -2 -26 -2 -35 0
-10 3 -2 5 17 5 19 0 27 -2 18 -5z m672 -3 c0 -5 -4 -10 -10 -10 -5 0 -10 5
-10 10 0 6 5 10 10 10 6 0 10 -4 10 -10z m-815 -24 c-131 -35 -249 -85 -344
-148 -19 -12 -32 -17 -28 -10 11 16 124 78 210 115 81 34 190 66 227 66 14 0
-15 -11 -65 -23z m3816 -56 c-10 -25 -10 -25 -10 5 -1 17 3 41 7 55 7 25 7 24
10 -5 2 -17 -1 -42 -7 -55z m-3231 60 c0 -5 -2 -10 -4 -10 -3 0 -8 5 -11 10
-3 6 -1 10 4 10 6 0 11 -4 11 -10z m4560 -10 c0 -5 -8 -11 -18 -15 -25 -7 -42
-47 -42 -93 0 -36 -14 -62 -32 -62 -22 0 4 86 47 156 17 28 45 36 45 14z
m-440 -10 c0 -18 -3 -19 -20 -8 -14 9 -16 14 -7 20 20 13 27 9 27 -12z m1364
-25 l6 -30 -15 25 c-8 14 -14 32 -15 40 0 23 17 -2 24 -35z m-1856 -16 c24 0
25 -1 7 -9 -33 -14 -72 -11 -79 6 -10 26 -7 34 17 43 19 7 22 5 25 -15 3 -18
10 -24 30 -25z m743 30 c3 -6 9 -10 13 -9 19 5 66 -13 66 -25 0 -8 -11 -26
-25 -41 -14 -15 -25 -23 -25 -18 0 4 -5 3 -12 -4 -21 -21 -28 -13 -29 31 0 37
-2 40 -11 20 -15 -31 -23 -29 -49 13 -18 30 -20 38 -8 45 17 11 70 3 80 -12z
m277 -23 c23 -11 42 -24 42 -29 0 -5 -8 -6 -17 -1 -10 4 -31 8 -48 8 -24 1
-31 6 -33 25 -2 13 0 22 5 20 4 -2 27 -13 51 -23z m-2128 -1 c0 -8 -4 -15 -10
-15 -5 0 -10 7 -10 15 0 8 5 15 10 15 6 0 10 -7 10 -15z m1754 -2 c2 -10 7
-28 11 -40 9 -33 -17 -30 -57 6 l-33 30 25 10 c37 14 48 13 54 -6z m1223 -55
c-3 -7 -5 -2 -5 12 0 14 2 19 5 13 2 -7 2 -19 0 -25z m-5814 15 c-7 -2 -21 -2
-30 0 -10 3 -4 5 12 5 17 0 24 -2 18 -5z m402 -23 c0 -11 -9 -14 -30 -12 -37
4 -44 10 -25 23 21 13 55 7 55 -11z m3121 -16 c-6 -19 -12 -28 -14 -20 -3 13
14 56 22 56 2 0 -2 -16 -8 -36z m978 -16 c3 -16 2 -28 -3 -28 -12 0 -29 51
-23 69 4 12 6 12 12 0 4 -8 10 -26 14 -41z m-1554 0 c0 -10 -11 -10 -29 1 -9
6 -11 16 -7 27 7 18 8 18 22 0 8 -11 14 -23 14 -28z m2125 22 c22 -11 29 -17
15 -14 -38 10 -87 32 -70 33 8 0 33 -8 55 -19z m-2050 0 c3 -5 2 -10 -4 -10
-5 0 -13 5 -16 10 -3 6 -2 10 4 10 5 0 13 -4 16 -10z m2535 -30 c0 -7 -19 -10
-45 -9 -25 2 -45 6 -45 11 0 4 20 8 45 8 25 0 45 -5 45 -10z m-380 -20 c0 -5
-2 -10 -4 -10 -3 0 -8 5 -11 10 -3 6 -1 10 4 10 6 0 11 -4 11 -10z m-2555 -21
c11 -17 -1 -21 -15 -4 -8 9 -8 15 -2 15 6 0 14 -5 17 -11z m1373 -25 c-10 -10
-28 6 -28 24 0 15 1 15 17 -1 9 -9 14 -19 11 -23z m1426 -13 c-5 -3 -9 -17 -9
-31 0 -18 -6 -26 -22 -28 -13 -2 -23 1 -23 7 0 5 -8 11 -17 13 -14 3 -9 10 21
30 22 15 44 25 49 21 5 -3 5 -8 1 -12z m-2559 -61 c49 -17 94 -35 100 -41 7
-8 -8 -27 -50 -66 -84 -77 -187 -163 -197 -163 -9 0 -6 37 13 180 14 102 19
120 33 120 7 0 52 -14 101 -30z m-385 -20 c0 -11 -4 -20 -9 -20 -14 0 -23 18
-16 30 10 17 25 11 25 -10z m2528 -40 c-14 -22 -24 -19 -15 5 4 8 11 15 17 15
6 0 6 -7 -2 -20z m-3944 -155 c30 -60 64 -139 76 -174 20 -65 27 -106 9 -63
-5 13 -18 26 -28 29 -12 3 -22 17 -26 37 -4 17 -23 65 -42 106 -32 67 -83 204
-83 219 1 17 46 -57 94 -154z m5098 56 c1 -39 -2 -74 -5 -78 -4 -3 -7 18 -7
48 0 30 -3 72 -6 94 -4 30 -3 36 5 24 6 -9 12 -49 13 -88z m-7053 17 c-65 -82
-152 -286 -161 -378 -3 -33 -2 -34 42 -45 25 -6 44 -14 43 -18 -2 -4 -3 -12
-3 -18 0 -8 -13 -9 -40 -5 -25 4 -40 2 -40 -4 0 -5 -6 -10 -14 -10 -36 0 17
218 89 365 40 83 111 182 122 171 3 -2 -14 -28 -38 -58z m2676 12 c4 -6 21 -8
40 -4 38 7 40 4 48 -89 4 -40 2 -47 -10 -42 -9 3 -21 0 -29 -5 -7 -6 -29 -10
-50 -8 -36 3 -37 3 -54 71 -17 68 -17 69 4 77 29 12 44 12 51 0z m3064 1 l24
-6 -24 -28 c-27 -30 -43 -26 -53 16 -7 29 2 32 53 18z m-4422 -92 c76 -75 128
-148 178 -250 39 -81 47 -89 90 -89 35 0 49 -8 58 -32 6 -16 0 -18 -45 -18
-33 0 -58 -6 -69 -16 -14 -13 -27 -14 -61 -8 -48 9 -46 9 -114 0 -35 -5 -45
-4 -34 3 8 6 24 11 36 11 11 0 29 9 39 20 21 24 16 58 -17 117 l-24 42 -37
-24 c-41 -29 -47 -30 -47 -12 0 7 14 23 30 35 36 27 37 39 7 72 -68 76 -107
140 -84 140 7 0 3 7 -7 15 -15 11 -16 18 -8 28 8 10 9 16 1 24 -9 9 -4 11 16
9 17 -2 50 -26 92 -67z m-1299 24 c-43 -83 -100 -213 -117 -265 -25 -76 -41
-95 -41 -49 0 66 92 290 127 310 21 12 36 14 31 4z m5657 -3 c3 -5 1 -10 -4
-10 -6 0 -11 5 -11 10 0 6 2 10 4 10 3 0 8 -4 11 -10z m-2653 -37 c16 -3 35 0
43 7 8 7 22 9 31 6 14 -5 15 -15 10 -59 -4 -28 -14 -57 -22 -64 -11 -8 -14
-20 -9 -41 5 -26 2 -31 -25 -42 -17 -7 -34 -20 -39 -29 -8 -14 -12 -14 -31 4
-15 13 -19 26 -15 45 3 14 -1 53 -8 86 -16 69 -8 110 21 99 9 -3 29 -9 44 -12z
m-1802 -112 c8 -16 6 -23 -12 -35 -29 -21 -39 -12 -26 24 12 35 23 38 38 11z
m1498 -9 c3 -10 -4 -13 -24 -10 -15 2 -29 9 -32 16 -3 10 4 13 24 10 15 -2 29
-9 32 -16z m180 -18 c27 -19 28 -45 3 -68 -26 -24 -52 -17 -71 17 -14 27 -14
29 9 48 28 23 31 23 59 3z m440 -141 c-21 -20 -40 -34 -44 -30 -8 8 50 67 68
67 7 0 -4 -17 -24 -37z m-583 7 c-3 -5 -23 -9 -43 -9 l-37 1 30 8 c44 11 57
11 50 0z m-1755 -20 c12 -8 9 -10 -13 -10 -16 0 -26 4 -22 10 8 12 16 12 35 0z
m35 -45 c25 -24 32 -44 18 -46 -5 0 -18 -2 -31 -5 -12 -2 -34 3 -47 12 -24 15
-25 15 -34 -7 -5 -13 -10 -17 -10 -9 -1 22 12 39 29 38 8 -1 24 0 35 1 18 1
19 2 3 12 -10 5 -18 14 -18 19 0 18 31 10 55 -15z m-105 0 c-7 -9 -15 -13 -17
-11 -7 7 7 26 19 26 6 0 6 -6 -2 -15z m-1060 -131 c0 -41 4 -83 10 -93 8 -16
4 -19 -32 -25 -22 -4 -43 -4 -46 -1 -3 3 2 5 11 5 14 0 17 12 17 73 0 85 7
117 26 117 11 0 14 -18 14 -76z m2880 -39 c0 -8 -7 -15 -15 -15 -16 0 -20 12
-8 23 11 12 23 8 23 -8z m740 -105 c0 -13 -29 -32 -39 -26 -7 5 -8 29 -2 43 3
5 41 -11 41 -17z m2664 -2 c-21 -70 -26 -76 -52 -59 -10 6 -11 13 -4 27 6 11
13 27 16 37 3 9 15 17 26 17 18 0 20 -4 14 -22z m-2705 -133 c1 -5 -4 -3 -10
5 -8 12 -9 8 -7 -14 2 -17 -2 -31 -9 -33 -16 -6 -18 43 -3 52 6 4 8 16 5 28
-5 19 -4 19 9 -3 9 -14 15 -29 15 -35z m1085 40 c-8 -20 -42 -28 -98 -22 -25
3 -48 2 -51 -3 -9 -15 -285 -33 -285 -19 0 15 80 26 385 52 22 2 43 4 47 5 4
1 5 -5 2 -13z m1175 -9 c-12 -10 -60 -16 -54 -6 3 5 18 10 32 10 15 0 24 -2
22 -4z m611 -20 c0 -2 -8 -10 -17 -17 -16 -13 -17 -12 -4 4 13 16 21 21 21 13z
m-2237 -27 c-8 -8 -16 -8 -30 0 -16 9 -14 10 12 11 21 0 26 -3 18 -11z m370 4
c-7 -2 -19 -2 -25 0 -7 3 -2 5 12 5 14 0 19 -2 13 -5z m1017 -3 c-20 -13 -73
-13 -65 0 3 6 23 10 43 10 28 0 33 -3 22 -10z m-950 -19 c0 -5 -12 -12 -27
-14 -26 -4 -26 -4 5 -6 17 0 32 -5 32 -11 0 -5 -52 -11 -122 -13 l-123 -3 133
-2 c91 -1 132 -6 132 -13 0 -8 -16 -10 -52 -6 -29 4 -208 10 -398 14 -190 4
-334 9 -320 10 14 2 151 7 305 13 154 6 312 16 350 24 39 8 73 14 78 15 4 0 7
-3 7 -8z m966 -23 c-7 -34 -7 -35 -15 -13 -5 12 -4 23 3 27 16 11 16 10 12
-14z m5814 -9 c0 -22 -21 -22 -28 1 -3 7 0 10 7 6 6 -4 11 -2 11 3 0 6 2 11 5
11 3 0 5 -9 5 -21z m-6523 -15 c-3 -3 -12 -4 -19 -1 -8 3 -5 6 6 6 11 1 17 -2
13 -5z m521 -23 c139 -25 152 -29 152 -47 0 -8 -3 -14 -7 -14 -27 0 -355 60
-365 67 -7 4 -62 11 -123 14 -80 5 -64 6 60 3 111 -2 209 -10 283 -23z m-2193
-12 c15 -14 -37 -10 -70 6 l-30 15 45 -6 c25 -3 49 -10 55 -15z m338 14 c-7
-2 -21 -2 -30 0 -10 3 -4 5 12 5 17 0 24 -2 18 -5z m7837 -30 c-11 -17 -11
-17 -6 0 3 10 6 24 7 30 0 9 2 9 5 0 3 -7 0 -20 -6 -30z m-8785 -1 c49 6 53
-7 6 -17 -30 -6 -83 13 -97 36 -3 6 5 3 20 -6 19 -13 39 -16 71 -13z m820 -33
c-60 -10 -182 -28 -270 -39 -88 -11 -209 -27 -270 -35 -134 -18 -125 -18 -125
-2 0 7 18 13 48 15 112 6 483 52 567 71 22 5 67 9 100 9 56 0 52 -2 -50 -19z
m-1428 -58 c2 -22 -22 -31 -87 -31 -34 0 -48 5 -57 19 -16 26 -6 29 77 30 58
1 66 -1 67 -18z m-2022 -17 c11 -3 40 -39 65 -81 53 -89 194 -241 288 -313
122 -92 396 -207 434 -184 16 10 438 11 438 2 0 -14 35 -9 113 16 106 34 208
84 320 160 75 50 114 68 179 85 46 12 92 25 102 28 18 5 18 4 -2 -24 -61 -85
-240 -226 -375 -294 -180 -91 -344 -129 -559 -129 -213 0 -371 36 -553 127
-218 109 -413 297 -533 515 -23 43 -42 82 -42 88 0 11 90 14 125 4z m109 -59
c9 -14 13 -25 8 -25 -5 0 -14 11 -20 25 -6 14 -10 25 -8 25 2 0 11 -11 20 -25z
m1886 5 c0 -5 -13 -10 -29 -10 -17 0 -33 5 -36 10 -4 6 8 10 29 10 20 0 36 -4
36 -10z m-384 -337 c-3 -17 -147 -103 -171 -103 -5 0 29 21 77 47 105 55 111
69 9 18 -117 -59 -203 -88 -212 -73 -9 14 15 38 39 38 8 0 28 7 45 15 44 21
190 74 204 75 6 0 10 -8 9 -17z m-330 -96 c10 -30 14 -32 54 -30 55 3 49 -2
-30 -22 -44 -11 -66 -13 -68 -6 -2 7 -40 11 -103 11 -54 0 -99 4 -99 9 0 5 36
13 81 17 79 7 109 20 109 49 0 17 22 25 35 13 6 -5 15 -23 21 -41z m-716 23
c8 -5 11 -10 5 -10 -5 0 -17 5 -25 10 -8 5 -10 10 -5 10 6 0 17 -5 25 -10z
m369 -43 c72 -16 78 -34 9 -30 -82 5 -138 13 -138 22 0 24 41 26 129 8z m481
3 c-8 -5 -19 -10 -25 -10 -5 0 -3 5 5 10 8 5 20 10 25 10 6 0 3 -5 -5 -10z"/>
<path d="M9328 5533 c-16 -2 -28 -11 -28 -19 0 -21 38 -17 50 6 6 11 9 19 8
19 -2 -1 -15 -4 -30 -6z"/>
<path d="M8380 5340 c0 -5 5 -10 11 -10 5 0 7 5 4 10 -3 6 -8 10 -11 10 -2 0
-4 -4 -4 -10z"/>
<path d="M8510 5096 c0 -2 8 -10 18 -17 15 -13 16 -12 3 4 -13 16 -21 21 -21
13z"/>
<path d="M8475 4510 c-3 -6 1 -7 9 -4 18 7 21 14 7 14 -6 0 -13 -4 -16 -10z"/>
<path d="M7530 4229 c0 -5 9 -9 20 -9 11 0 20 2 20 4 0 2 -9 6 -20 9 -11 3
-20 1 -20 -4z"/>
<path d="M8140 3996 c0 -3 9 -10 20 -16 11 -6 20 -8 20 -6 0 3 -9 10 -20 16
-11 6 -20 8 -20 6z"/>
<path d="M8009 3665 c18 -8 36 -15 40 -15 13 1 -45 29 -59 29 -8 0 0 -6 19
-14z"/>
<path d="M6278 4158 c-27 -6 -48 -14 -48 -20 0 -5 8 -7 19 -3 10 3 38 12 62
19 51 16 35 18 -33 4z"/>
<path d="M5744 3916 c-62 -42 -84 -63 -99 -95 -10 -23 -34 -54 -52 -69 -28
-22 -34 -32 -29 -53 9 -48 67 -159 82 -159 20 0 29 -27 14 -45 -11 -13 -8 -15
21 -15 l32 0 -23 -25 -23 -25 31 0 c37 0 40 -10 12 -35 -11 -10 -19 -20 -17
-22 2 -2 46 17 98 41 52 25 86 45 75 46 -12 0 -16 5 -12 15 7 19 7 19 -69 -11
-36 -15 -68 -24 -70 -22 -3 3 27 18 65 33 70 28 95 45 66 45 -8 0 -16 5 -18
11 -2 7 -29 1 -72 -15 -38 -15 -71 -24 -73 -22 -5 4 66 38 105 51 13 3 20 14
19 25 -2 24 -7 24 -54 5 -19 -8 -42 -15 -49 -15 -15 0 -70 108 -80 157 -4 21
1 44 19 79 29 58 50 77 137 132 36 23 60 42 55 42 -6 0 -46 -24 -91 -54z"/>
<path d="M5745 3950 c-8 -13 5 -13 25 0 13 8 13 10 -2 10 -9 0 -20 -4 -23 -10z"/>
<path d="M6656 2721 c-8 -12 21 -61 35 -61 5 0 3 10 -5 23 -8 12 -15 26 -15
30 1 14 -9 19 -15 8z"/>
<path d="M6593 2699 c-45 -13 -42 -21 5 -14 l37 6 -40 -20 c-47 -23 -40 -27
10 -7 25 11 33 19 29 30 -3 9 -7 16 -8 15 0 0 -16 -5 -33 -10z"/>
<path d="M7350 3337 c-15 -7 -118 -14 -265 -17 l-240 -6 226 -2 c215 -2 275 4
304 29 12 11 6 10 -25 -4z"/>
<path d="M6375 3220 c10 -16 95 -57 166 -79 102 -33 232 -51 394 -56 l150 -4
-170 13 c-246 19 -428 61 -506 117 -30 21 -44 25 -34 9z"/>
<path d="M7145 3090 c-26 -7 -22 -8 23 -9 29 0 52 3 52 9 0 11 -31 11 -75 0z"/>
<path d="M3341 3766 c2 -2 22 -6 44 -9 27 -4 35 -3 25 3 -14 9 -79 15 -69 6z"/>
<path d="M3027 3664 c-11 -14 -17 -28 -14 -30 3 -3 15 9 27 25 12 17 18 31 13
31 -4 0 -16 -12 -26 -26z"/>
<path d="M3224 3665 c11 -8 22 -12 25 -9 6 6 -19 24 -34 24 -5 -1 -1 -7 9 -15z"/>
<path d="M3069 3621 c-38 -39 -38 -78 -1 -114 34 -32 76 -35 112 -7 14 11 20
20 14 20 -6 0 -17 -7 -24 -15 -32 -38 -120 7 -120 62 0 30 42 73 70 73 45 0
77 -76 48 -110 -7 -8 -1 -4 15 9 15 14 27 31 27 39 0 24 -57 72 -85 72 -16 0
-38 -12 -56 -29z"/>
<path d="M1790 3628 c19 -5 40 -14 45 -19 7 -7 4 -8 -9 -3 -17 6 -17 5 -6 -17
13 -23 13 -23 21 -4 4 11 8 23 8 27 1 8 -57 28 -78 27 -9 0 0 -5 19 -11z"/>
<path d="M1790 3595 c0 -8 4 -15 10 -15 5 0 7 7 4 15 -4 8 -8 15 -10 15 -2 0
-4 -7 -4 -15z"/>
<path d="M1724 3580 c0 -23 12 -26 31 -6 16 15 10 26 -15 26 -9 0 -16 -8 -16
-20z"/>
<path d="M1896 3578 c-4 -15 -9 -19 -14 -11 -5 8 -11 4 -19 -13 -6 -13 -10
-24 -8 -24 8 0 96 53 100 61 4 5 -7 9 -23 9 -22 0 -31 -6 -36 -22z"/>
<path d="M1370 3569 c-19 -4 19 -6 85 -6 120 0 124 4 10 9 -33 2 -76 0 -95 -3z"/>
<path d="M3090 3405 c0 -7 61 -37 66 -33 2 3 -12 12 -31 21 -19 9 -35 15 -35
12z"/>
<path d="M4663 3643 c15 -2 39 -2 55 0 15 2 2 4 -28 4 -30 0 -43 -2 -27 -4z"/>
<path d="M8090 3512 c8 -5 26 -13 40 -16 17 -5 20 -4 10 2 -8 5 -26 13 -40 16
-17 5 -20 4 -10 -2z"/>
<path d="M8540 3379 c0 -5 5 -7 10 -4 6 3 10 8 10 11 0 2 -4 4 -10 4 -5 0 -10
-5 -10 -11z"/>
<path d="M8517 3283 c-4 -3 -7 -11 -7 -17 0 -6 5 -5 12 2 6 6 9 14 7 17 -3 3
-9 2 -12 -2z"/>
<path d="M8091 1954 c0 -11 3 -14 6 -6 3 7 2 16 -1 19 -3 4 -6 -2 -5 -13z"/>
<path d="M5600 2558 c-85 -73 -303 -263 -485 -423 -415 -365 -429 -377 -501
-420 -111 -67 -147 -73 -512 -85 -180 -5 -333 -10 -339 -10 -7 0 -13 -4 -13
-10 0 -25 639 -3 739 26 133 38 149 50 636 473 417 363 621 547 629 566 3 8 4
15 3 15 -1 0 -72 -60 -157 -132z"/>
<path d="M7996 2485 c-9 -26 -7 -32 5 -12 6 10 9 21 6 23 -2 3 -7 -2 -11 -11z"/>
<path d="M2391 2442 c-7 -14 -17 -18 -31 -15 -11 3 -20 0 -20 -6 0 -6 9 -11
19 -11 11 0 26 -3 34 -6 9 -3 17 3 20 18 8 30 -8 46 -22 20z"/>
<path d="M2350 2371 c0 -5 -10 -12 -22 -16 -22 -6 -21 -7 11 -21 18 -8 35 -14
36 -12 7 7 -8 58 -16 58 -5 0 -9 -4 -9 -9z"/>
<path d="M2121 2349 c-24 -5 -46 -10 -48 -12 -2 -2 12 -37 32 -78 32 -67 43
-109 30 -109 -4 0 -19 7 -35 15 -28 14 -31 14 -63 -14 l-33 -30 -32 21 c-36
22 -36 23 22 86 18 19 24 31 14 27 -9 -4 -30 1 -47 10 -24 12 -36 13 -52 5
-19 -11 -20 -12 -3 -24 9 -7 14 -18 10 -24 -10 -16 -27 -15 -40 3 -9 12 -16
10 -45 -14 l-33 -27 28 -31 c16 -17 43 -48 61 -68 24 -28 37 -35 52 -30 20 6
61 -24 61 -45 0 -22 -85 4 -121 36 -9 8 -31 17 -49 19 -45 6 -73 33 -65 63 4
15 2 21 -5 17 -18 -11 -11 -54 13 -69 12 -8 68 -33 124 -56 l102 -41 78 41
c43 22 83 40 89 40 21 0 53 46 63 90 16 70 14 90 -9 90 -18 0 -60 51 -60 73 0
4 20 7 45 7 47 0 58 12 26 30 -22 12 -48 11 -110 -1z m-41 -229 c0 -5 -4 -10
-10 -10 -5 0 -10 5 -10 10 0 6 5 10 10 10 6 0 10 -4 10 -10z"/>
<path d="M6541 2349 c-1 -23 33 -51 53 -43 9 3 22 16 28 28 11 20 10 20 -9 4
-27 -24 -48 -22 -61 5 -7 15 -11 17 -11 6z"/>
<path d="M1970 2315 c-20 -24 -6 -28 15 -5 10 11 13 20 8 20 -6 0 -16 -7 -23
-15z"/>
<path d="M2286 2321 c-4 -7 -5 -15 -2 -18 9 -9 19 4 14 18 -4 11 -6 11 -12 0z"/>
<path d="M6710 2310 c0 -13 30 -13 50 0 11 7 7 10 -17 10 -18 0 -33 -4 -33
-10z"/>
<path d="M6695 2290 c3 -5 2 -10 -4 -10 -6 0 -8 -7 -4 -15 5 -14 8 -14 24 1
15 14 17 19 7 26 -18 11 -30 10 -23 -2z"/>
<path d="M7678 2258 c-3 -7 -13 -13 -23 -13 -24 0 -28 -15 -11 -38 13 -17 16
-17 45 -3 38 20 62 21 55 1 -4 -8 -10 -13 -14 -10 -4 3 -15 -6 -24 -20 -16
-24 -16 -26 9 -37 21 -9 28 -8 47 8 19 17 21 17 15 2 -10 -27 8 -22 27 7 19
29 14 45 -13 45 -10 0 -35 16 -55 35 -40 38 -52 42 -58 23z"/>
<path d="M6427 2212 c-20 -22 -22 -43 -5 -60 18 -18 43 -15 63 8 17 18 17 21
1 45 -20 30 -37 32 -59 7z m53 -27 c0 -30 -30 -42 -48 -18 -11 16 -10 20 9 35
25 21 39 15 39 -17z"/>
<path d="M1495 2209 c-4 -6 -5 -12 -2 -15 2 -3 7 2 10 11 7 17 1 20 -8 4z"/>
<path d="M6632 2160 c0 -14 2 -19 5 -12 2 6 2 18 0 25 -3 6 -5 1 -5 -13z"/>
<path d="M6057 2164 c-21 -21 10 -64 46 -64 21 0 21 1 -3 13 -13 7 -27 23 -30
35 -3 13 -8 20 -13 16z"/>
<path d="M7856 2126 c-6 -33 -6 -33 -49 -25 -54 11 -66 10 -47 0 8 -5 36 -12
63 -16 l47 -7 0 41 c0 50 -6 53 -14 7z"/>
<path d="M7717 2119 c7 -7 15 -10 18 -7 3 3 -2 9 -12 12 -14 6 -15 5 -6 -5z"/>
<path d="M7140 2111 c0 -6 5 -13 10 -16 6 -3 10 1 10 9 0 9 -4 16 -10 16 -5 0
-10 -4 -10 -9z"/>
<path d="M1580 2050 c0 -5 5 -10 11 -10 5 0 7 5 4 10 -3 6 -8 10 -11 10 -2 0
-4 -4 -4 -10z"/>
<path d="M7146 2025 c-3 -8 -1 -15 4 -15 6 0 10 7 10 15 0 8 -2 15 -4 15 -2 0
-6 -7 -10 -15z"/>
<path d="M6615 1952 c2 -37 -1 -73 -7 -79 -8 -10 -5 -13 12 -13 20 0 21 3 15
43 -5 39 -5 41 9 22 37 -48 74 -78 133 -107 68 -33 81 -35 188 -23 71 8 111
28 110 55 0 8 21 36 48 61 49 47 54 72 17 82 -13 3 -21 -1 -25 -14 -7 -22 -80
-100 -87 -93 -3 2 -24 -3 -48 -11 -113 -40 -243 10 -307 118 -4 8 -20 17 -35
20 l-26 7 3 -68z m75 -3 c0 -6 -4 -7 -10 -4 -5 3 -10 11 -10 16 0 6 5 7 10 4
6 -3 10 -11 10 -16z m210 -119 c0 -13 -7 -20 -19 -20 -14 0 -18 5 -14 20 3 11
12 20 19 20 8 0 14 -9 14 -20z"/>
<path d="M7772 1938 c-13 -13 -16 -54 -4 -62 4 -2 8 8 7 22 0 24 3 27 33 25
27 -1 31 1 21 13 -14 17 -41 18 -57 2z"/>
<path d="M5206 1924 c-4 -10 -1 -14 6 -12 15 5 23 28 10 28 -5 0 -13 -7 -16
-16z"/>
<path d="M5264 1894 c-17 -18 -27 -34 -22 -34 11 0 58 50 58 61 0 13 -2 11
-36 -27z"/>
<path d="M1650 1900 c0 -5 6 -10 14 -10 7 0 29 -2 47 -5 l34 -5 -30 14 c-35
18 -65 20 -65 6z"/>
<path d="M1616 1865 c-3 -9 -6 -22 -5 -28 0 -7 5 -1 10 12 5 13 8 26 5 28 -2
2 -6 -3 -10 -12z"/>
<path d="M2254 1870 c-5 -5 -22 -16 -39 -24 l-30 -16 32 0 c23 0 36 6 43 21
13 23 9 34 -6 19z"/>
<path d="M1505 1830 c4 -6 11 -8 16 -5 14 9 11 15 -7 15 -8 0 -12 -5 -9 -10z"/>
<path d="M7375 1790 c-17 -18 -17 -21 -1 -45 20 -30 37 -32 59 -7 20 22 22 43
5 60 -18 18 -43 15 -63 -8z m55 -6 c11 -12 10 -18 -3 -31 -8 -9 -23 -13 -31
-10 -19 8 -21 43 -3 50 20 9 24 8 37 -9z"/>
<path d="M6553 1783 c-13 -9 -23 -23 -23 -32 0 -12 5 -10 19 8 21 28 51 23 51
-9 0 -11 7 -20 15 -20 20 0 19 24 -2 42 -30 25 -37 26 -60 11z"/>
<path d="M1865 1770 c10 -11 27 -20 37 -20 16 0 17 3 8 20 -7 12 -21 20 -37
20 -25 0 -26 0 -8 -20z"/>
<path d="M7555 1739 c-28 -29 -43 -48 -34 -43 16 9 95 94 87 94 -2 0 -26 -23
-53 -51z"/>
<path d="M6198 1753 c7 -3 16 -2 19 1 4 3 -2 6 -13 5 -11 0 -14 -3 -6 -6z"/>
<path d="M5783 1593 c9 -2 25 -2 35 0 9 3 1 5 -18 5 -19 0 -27 -2 -17 -5z"/>
<path d="M2216 1272 c-5 -9 -46 -170 -46 -183 0 -5 7 -9 17 -9 9 0 14 3 11 6
-10 9 8 59 21 59 14 0 62 120 53 130 -8 8 -50 6 -56 -3z"/>
<path d="M2335 1270 c3 -5 10 -10 16 -10 5 0 9 5 9 10 0 6 -7 10 -16 10 -8 0
-12 -4 -9 -10z"/>
<path d="M1891 1214 c0 -11 3 -14 6 -6 3 7 2 16 -1 19 -3 4 -6 -2 -5 -13z"/>
<path d="M1936 2836 c-19 -9 -24 -15 -15 -18 8 -3 26 1 42 9 48 24 26 32 -27
9z"/>
<path d="M7401 2923 c-1 -6 -4 -20 -7 -30 -5 -17 -5 -17 6 0 6 10 9 23 6 30
-3 9 -5 9 -5 0z"/>
<path d="M2755 2221 c-3 -5 -1 -12 5 -16 5 -3 10 1 10 9 0 18 -6 21 -15 7z"/>
<path d="M2860 2099 c0 -5 5 -7 10 -4 6 3 10 8 10 11 0 2 -4 4 -10 4 -5 0 -10
-5 -10 -11z"/>
<path d="M2874 2076 c-8 -20 23 -76 41 -76 19 0 19 3 -5 50 -22 43 -28 47 -36
26z"/>
<path d="M2920 1917 c0 -20 5 -27 20 -27 11 0 20 4 20 8 0 5 -9 17 -20 27 -20
18 -20 17 -20 -8z"/>
<path d="M4320 2115 c7 -9 15 -13 17 -11 7 7 -7 26 -19 26 -6 0 -6 -6 2 -15z"/>
<path d="M6750 1395 c63 -12 116 -21 118 -20 8 7 -185 46 -217 44 -9 -1 36
-11 99 -24z"/>
<path d="M9258 5933 c7 -3 16 -2 19 1 4 3 -2 6 -13 5 -11 0 -14 -3 -6 -6z"/>
<path d="M8910 5908 c-61 -17 -53 -25 12 -12 100 20 105 22 63 22 -22 0 -56
-4 -75 -10z"/>
<path d="M8945 5850 c-84 -42 -151 -90 -125 -90 8 0 64 11 125 24 113 25 139
41 133 81 -5 33 -47 28 -133 -15z"/>
<path d="M8170 5749 c0 -11 5 -17 10 -14 6 3 10 13 10 21 0 8 -4 14 -10 14 -5
0 -10 -9 -10 -21z"/>
<path d="M9430 5416 c0 -8 5 -18 10 -21 6 -3 10 3 10 14 0 12 -4 21 -10 21 -5
0 -10 -6 -10 -14z"/>
<path d="M9320 5210 c-6 -12 -9 -24 -7 -27 3 -2 11 5 17 17 6 12 9 24 7 27 -3
2 -11 -5 -17 -17z"/>
<path d="M9480 4644 c0 -23 57 -137 64 -126 4 7 -2 31 -12 54 -22 48 -51 89
-52 72z"/>
<path d="M9524 4475 c4 -11 71 -130 150 -265 79 -135 165 -282 191 -327 26
-46 51 -83 56 -83 16 0 10 33 -10 54 -11 12 -96 154 -191 316 -157 270 -216
361 -196 305z"/>
<path d="M9280 4471 c0 -5 5 -13 10 -16 6 -3 10 -2 10 4 0 5 -4 13 -10 16 -5
3 -10 2 -10 -4z"/>
<path d="M9968 3801 c13 -11 25 -32 27 -47 3 -33 29 -59 50 -51 13 6 14 11 4
29 -18 36 -41 59 -74 75 l-30 14 23 -20z"/>
<path d="M4 3445 c-10 -53 1 -284 14 -297 7 -7 45 -10 96 -9 72 2 86 0 86 -13
0 -33 20 -13 58 58 34 62 109 179 170 265 12 18 4 19 -187 20 -111 1 -207 4
-215 7 -11 4 -17 -5 -22 -31z m146 -115 c0 -5 -2 -10 -4 -10 -3 0 -8 5 -11 10
-3 6 -1 10 4 10 6 0 11 -4 11 -10z m140 -6 c0 -8 -5 -12 -10 -9 -6 4 -8 11 -5
16 9 14 15 11 15 -7z m-192 -21 c-10 -2 -28 -2 -40 0 -13 2 -5 4 17 4 22 1 32
-1 23 -4z m181 -53 c-12 -22 -25 -38 -27 -35 -5 4 37 75 44 75 3 0 -5 -18 -17
-40z"/>
<path d="M11218 3080 c20 -8 22 -14 16 -52 -11 -78 -168 -628 -209 -731 -16
-41 -21 -110 -5 -72 20 47 213 723 223 782 12 67 5 83 -33 82 -8 0 -5 -4 8 -9z"/>
<path d="M10610 3074 c32 -9 76 -163 141 -493 18 -91 34 -160 36 -154 9 25
-115 591 -138 635 -5 10 -20 17 -32 17 -13 -1 -16 -3 -7 -5z"/>
<path d="M12330 3000 c0 -5 5 -10 11 -10 5 0 7 5 4 10 -3 6 -8 10 -11 10 -2 0
-4 -4 -4 -10z"/>
<path d="M10556 2952 c2 -2 -2 -14 -8 -26 -10 -20 -10 -20 8 -4 12 12 15 21 8
27 -6 5 -9 6 -8 3z"/>
<path d="M10490 2936 c0 -2 8 -10 18 -17 15 -13 16 -12 3 4 -13 16 -21 21 -21
13z"/>
<path d="M11742 2821 l32 -29 -32 -51 c-37 -60 -25 -58 19 2 l29 41 -32 33
c-17 18 -36 33 -40 33 -5 0 6 -13 24 -29z"/>
<path d="M10229 2795 c34 -56 59 -79 30 -27 -13 24 -30 49 -38 55 -8 7 -5 -6
8 -28z"/>
<path d="M10226 2744 c-4 -11 -14 -15 -31 -12 -13 3 -22 1 -19 -3 8 -14 40
-10 54 6 7 9 11 18 8 21 -3 3 -8 -3 -12 -12z"/>
<path d="M12491 2731 c-19 -12 -5 -31 22 -30 21 0 21 1 2 9 -19 8 -19 9 3 9
27 1 55 -25 81 -77 18 -35 51 -73 51 -58 0 3 -20 37 -44 74 -50 79 -78 96
-115 73z"/>
<path d="M10390 2713 c0 -10 288 -496 345 -582 42 -64 55 -77 84 -82 75 -15
75 -4 -2 126 -38 66 -81 140 -94 165 -13 25 -68 120 -121 212 l-97 168 -57 0
c-32 0 -58 -3 -58 -7z"/>
<path d="M11892 2669 c70 -84 100 -115 91 -97 -13 27 -116 148 -126 148 -5 0
11 -23 35 -51z"/>
<path d="M10320 2684 c0 -3 13 -24 28 -47 27 -39 268 -440 344 -572 19 -33 38
-72 41 -87 4 -14 14 -28 22 -32 13 -5 13 -1 -1 27 -27 54 -376 660 -396 690
-17 24 -38 36 -38 21z"/>
<path d="M10661 2661 c-18 -12 -5 -48 21 -56 14 -5 17 -10 9 -18 -16 -16 -13
-27 6 -20 13 5 15 2 11 -15 -4 -12 -2 -25 3 -28 12 -7 11 6 -3 82 -11 63 -19
72 -47 55z"/>
<path d="M12538 2663 c7 -3 16 -2 19 1 4 3 -2 6 -13 5 -11 0 -14 -3 -6 -6z"/>
<path d="M10181 2604 c-14 -18 -18 -30 -11 -34 7 -4 -6 -29 -32 -64 -47 -64
-60 -66 -127 -20 -67 45 -90 22 -37 -36 20 -22 36 -46 36 -53 0 -6 9 3 20 21
23 37 35 40 50 13 13 -26 3 -51 -21 -51 -13 0 -19 -7 -19 -25 0 -13 -7 -28
-16 -33 -24 -14 -6 -23 206 -105 285 -110 321 -120 334 -98 4 5 -4 7 -15 4
-19 -5 -21 -3 -17 18 3 13 9 31 12 40 6 14 -81 141 -192 278 l-19 24 1 -39 c1
-34 4 -39 26 -42 33 -5 50 -20 50 -43 0 -10 14 -31 31 -46 17 -16 35 -37 40
-48 8 -16 6 -15 -7 3 -21 28 -24 28 -69 -8 -20 -16 -41 -27 -46 -24 -5 3 -9
-2 -9 -11 0 -14 -3 -14 -37 1 -33 13 -121 34 -160 36 -20 2 -15 18 5 18 9 0
50 -9 91 -20 58 -15 71 -16 60 -4 -8 7 -38 20 -67 26 -49 12 -52 14 -52 45 0
31 1 31 32 22 18 -5 34 -9 34 -9 1 0 0 -9 -3 -19 -4 -15 5 -24 38 -40 57 -28
63 -26 14 4 l-40 25 43 0 c35 0 42 3 42 19 0 28 -17 35 -25 11 -8 -25 -40 -21
-61 9 -11 15 -22 20 -35 16 -23 -8 -24 1 -4 21 8 9 15 21 15 27 0 6 -7 1 -16
-11 -18 -26 -36 -28 -54 -7 -17 21 3 43 36 39 21 -2 23 0 13 12 -24 29 -69 9
-69 -31 0 -12 5 -26 12 -33 9 -9 9 -12 0 -12 -15 0 -32 33 -32 63 0 17 7 27
23 31 41 11 59 6 108 -29 27 -19 49 -31 49 -25 0 5 -7 13 -17 18 -15 9 -14 12
5 37 27 34 22 42 -12 20 -24 -16 -28 -16 -51 -1 -14 9 -25 25 -25 36 0 18 3
19 20 8 23 -15 46 1 37 26 -11 28 -42 18 -65 -21 -22 -37 -22 -37 -16 -8 10
44 23 65 40 65 21 0 14 34 -7 38 -9 2 -26 -9 -38 -24z m69 -54 c0 -5 -4 -10
-10 -10 -5 0 -10 5 -10 10 0 6 5 10 10 10 6 0 10 -4 10 -10z m205 -280 c3 -5
-1 -10 -10 -10 -9 0 -13 5 -10 10 3 6 8 10 10 10 2 0 7 -4 10 -10z"/>
<path d="M10335 2600 c10 -11 20 -20 23 -20 3 0 -3 9 -13 20 -10 11 -20 20
-23 20 -3 0 3 -9 13 -20z"/>
<path d="M12565 2543 c8 -32 35 -61 52 -56 7 3 22 -1 33 -7 12 -6 24 -9 27 -6
11 10 -17 34 -47 40 -19 3 -35 15 -42 31 -15 34 -32 32 -23 -2z"/>
<path d="M11271 2524 c0 -11 3 -14 6 -6 3 7 2 16 -1 19 -3 4 -6 -2 -5 -13z"/>
<path d="M9840 2425 c0 -9 11 -27 24 -40 28 -28 106 -69 106 -56 0 11 -110
111 -122 111 -4 0 -8 -7 -8 -15z"/>
<path d="M10458 2408 c11 -18 38 -66 62 -105 23 -40 44 -73 47 -73 2 0 2 3 0
8 -46 82 -119 202 -123 202 -3 0 3 -15 14 -32z"/>
<path d="M12070 2413 c0 -4 5 -15 10 -23 8 -13 10 -13 10 2 0 9 -4 20 -10 23
-5 3 -10 3 -10 -2z"/>
<path d="M9782 2388 c2 -6 15 -18 29 -27 l24 -15 -24 27 c-26 29 -35 34 -29
15z"/>
<path d="M10892 2358 c23 -69 62 -75 91 -14 15 33 15 34 -6 40 -12 3 -39 6
-59 6 l-37 0 11 -32z"/>
<path d="M12642 2356 c3 -4 21 -15 39 -24 38 -20 43 -28 65 -107 10 -33 19
-55 21 -48 6 17 -35 149 -51 162 -15 12 -85 28 -74 17z"/>
<path d="M12105 2325 c7 -33 12 -41 21 -33 3 4 -2 19 -11 35 l-16 28 6 -30z"/>
<path d="M9873 2326 c10 -8 167 -78 350 -156 183 -78 342 -149 355 -156 75
-47 79 -48 45 -18 -25 23 -30 33 -23 50 5 12 13 25 19 29 6 3 11 11 11 18 0 6
-12 -4 -28 -22 l-27 -33 -91 35 c-108 42 -565 236 -579 247 -5 4 -19 10 -30
13 -19 7 -19 6 -2 -7z"/>
<path d="M11135 2319 c-9 -14 0 -22 18 -17 13 2 13 5 2 15 -10 9 -16 9 -20 2z"/>
<path d="M9885 2220 c-9 -28 10 -48 56 -60 36 -10 38 -13 32 -40 -7 -36 13
-42 26 -7 25 68 24 71 -35 100 -65 32 -71 33 -79 7z"/>
<path d="M12136 2198 c4 -6 16 -36 26 -67 l19 -56 -6 55 c-6 53 -18 80 -37 80
-5 0 -6 -5 -2 -12z"/>
<path d="M11380 2160 c6 -11 13 -20 16 -20 2 0 0 9 -6 20 -6 11 -13 20 -16 20
-2 0 0 -9 6 -20z"/>
<path d="M11520 2135 c-8 -9 -8 -15 -2 -15 12 0 26 19 19 26 -2 2 -10 -2 -17
-11z"/>
<path d="M11300 2115 c0 -5 5 -17 10 -25 5 -8 10 -10 10 -5 0 6 -5 17 -10 25
-5 8 -10 11 -10 5z"/>
<path d="M10210 2090 c8 -5 20 -10 25 -10 6 0 3 5 -5 10 -8 5 -19 10 -25 10
-5 0 -3 -5 5 -10z"/>
<path d="M9950 2076 c0 -9 5 -16 10 -16 6 0 10 -4 10 -10 0 -5 -7 -7 -15 -4
-18 7 -19 0 -5 -27 9 -15 7 -19 -7 -19 -13 0 -11 -6 11 -29 17 -18 25 -34 21
-42 -14 -22 -14 -59 0 -59 7 0 15 -6 18 -12 8 -23 19 -1 20 40 1 25 6 38 14
35 7 -3 12 15 15 54 5 73 3 80 -30 88 -15 3 -35 8 -44 11 -12 4 -18 0 -18 -10z"/>
<path d="M10291 2046 c-7 -8 -8 -16 -3 -18 5 -1 12 -33 15 -70 6 -66 6 -68
-17 -68 -19 0 -22 4 -18 25 3 18 0 25 -12 25 -9 0 -16 -7 -16 -15 0 -26 -67
-19 -95 10 -14 13 -25 20 -25 15 0 -17 53 -50 84 -51 25 -1 21 -4 -21 -13 -55
-12 -89 -32 -38 -23 17 3 60 9 97 12 57 6 168 43 131 45 -7 0 -13 7 -13 15 0
8 -9 15 -20 15 -23 0 -27 15 -5 24 8 3 21 -4 31 -17 16 -21 16 -18 -1 28 -7
18 -6 19 9 5 9 -9 17 -34 19 -58 1 -30 6 -41 15 -37 8 3 24 8 36 11 22 5 29
36 13 61 -6 10 -93 63 -103 63 -2 0 -4 -9 -4 -19 0 -10 -7 -21 -15 -25 -12 -4
-15 3 -15 29 0 38 -12 51 -29 31z"/>
<path d="M10676 2037 c3 -10 9 -15 12 -12 3 3 0 11 -7 18 -10 9 -11 8 -5 -6z"/>
<path d="M11080 1985 c0 -8 4 -15 10 -15 5 0 7 7 4 15 -4 8 -8 15 -10 15 -2 0
-4 -7 -4 -15z"/>
<path d="M12745 1990 c3 -5 11 -10 16 -10 6 0 7 5 4 10 -3 6 -11 10 -16 10 -6
0 -7 -4 -4 -10z"/>
<path d="M10761 1904 c0 -11 3 -14 6 -6 3 7 2 16 -1 19 -3 4 -6 -2 -5 -13z"/>
<path d="M12197 1844 c4 -91 13 -94 13 -6 0 40 -4 72 -8 72 -5 0 -7 -30 -5
-66z"/>
<path d="M10790 1894 c0 -6 7 -19 15 -30 8 -10 14 -14 14 -9 0 6 -6 19 -14 29
-8 11 -15 15 -15 10z"/>
<path d="M9641 1840 c-1 -43 15 -50 114 -49 l90 2 -82 8 c-92 9 -101 12 -113
43 -8 20 -9 20 -9 -4z"/>
<path d="M10385 1840 c-26 -4 0 -7 72 -6 62 1 104 4 95 8 -21 8 -114 7 -167
-2z"/>
<path d="M10130 1820 l-65 -7 60 0 c33 -1 85 2 115 7 l55 7 -50 0 c-27 0 -79
-3 -115 -7z"/>
<path d="M10737 1795 c17 -23 33 -32 33 -19 0 16 -23 44 -36 44 -13 0 -12 -4
3 -25z"/>
<path d="M11300 1810 c0 -5 12 -10 28 -10 21 0 24 2 12 10 -20 13 -40 13 -40
0z"/>
<path d="M10028 1803 c7 -3 16 -2 19 1 4 3 -2 6 -13 5 -11 0 -14 -3 -6 -6z"/>
<path d="M10968 1784 c-21 -45 21 -87 66 -66 28 13 36 58 14 80 -22 22 -67 14
-80 -14z"/>
<path d="M10820 1765 c0 -5 9 -21 20 -35 11 -14 20 -20 20 -15 0 6 -9 21 -20
35 -11 14 -20 21 -20 15z"/>
<path d="M10400 1739 c0 -19 21 -50 30 -44 15 9 22 -15 10 -30 -20 -25 5 -17
29 8 l22 24 -40 26 c-45 30 -51 32 -51 16z"/>
<path d="M10558 1663 c7 -3 16 -2 19 1 4 3 -2 6 -13 5 -11 0 -14 -3 -6 -6z"/>
<path d="M12150 1563 c1 -33 3 -43 10 -33 14 25 16 73 3 77 -9 3 -13 -9 -13
-44z"/>
<path d="M11490 1580 c-9 -6 -10 -10 -3 -10 6 0 15 5 18 10 8 12 4 12 -15 0z"/>
<path d="M10550 1541 c0 -6 5 -13 12 -17 7 -4 8 -3 4 4 -9 15 -1 15 25 2 15
-8 19 -7 19 5 0 10 -10 15 -30 15 -16 0 -30 -4 -30 -9z"/>
<path d="M10690 1525 c-19 -23 -8 -26 20 -5 19 15 21 20 9 20 -9 0 -22 -7 -29
-15z"/>
<path d="M11229 1469 l-24 -20 28 17 c15 9 27 18 27 20 0 8 -8 4 -31 -17z"/>
<path d="M9730 1395 c0 -5 5 -17 10 -25 5 -8 10 -10 10 -5 0 6 -5 17 -10 25
-5 8 -10 11 -10 5z"/>
<path d="M10390 1390 c-9 -6 -10 -10 -3 -10 6 0 15 5 18 10 8 12 4 12 -15 0z"/>
<path d="M11345 1390 c-3 -6 1 -7 9 -4 18 7 21 14 7 14 -6 0 -13 -4 -16 -10z"/>
<path d="M6631 1326 c2 -2 42 -6 89 -9 51 -3 77 -2 65 3 -19 8 -163 14 -154 6z"/>
<path d="M9760 1326 c0 -17 53 -106 64 -106 12 1 105 49 95 50 -4 0 -23 -7
-42 -15 -20 -8 -41 -15 -47 -15 -5 0 -23 21 -40 48 -16 26 -30 43 -30 38z"/>
<path d="M8012 1229 c-79 -51 -233 -99 -314 -99 -41 0 -57 -3 -52 -11 4 -8 -1
-9 -17 -3 -13 5 -159 8 -324 6 -343 -4 -385 0 -393 31 -6 22 -6 22 -12 -2 -5
-21 -16 -26 -91 -41 -48 -10 -144 -34 -215 -53 -140 -38 -94 -35 -698 -52
-106 -3 -152 -8 -158 -17 -6 -10 -10 -10 -16 -1 -6 9 -38 11 -122 7 -145 -6
-140 -6 -140 -16 0 -4 -39 -7 -87 -6 l-88 2 78 3 c42 2 77 7 77 11 0 4 -159 6
-352 4 -294 -2 -395 1 -604 18 -138 12 -261 20 -275 18 -33 -5 462 -49 646
-58 108 -5 129 -8 75 -9 -54 -2 -68 -5 -50 -11 14 -4 159 -8 323 -9 255 -1
301 -3 322 -17 35 -23 118 -20 161 5 33 20 50 21 323 21 206 0 290 -3 299 -12
6 -6 42 -12 81 -12 52 -1 73 3 88 17 17 15 43 17 199 17 234 1 307 10 390 49
52 24 80 31 128 31 l62 0 -4 36 c-4 35 -3 37 19 31 13 -4 28 -7 33 -7 5 0 3
-7 -4 -15 -11 -13 -15 -13 -21 -3 -6 9 -9 5 -9 -12 0 -24 2 -25 80 -26 44 -1
94 -7 111 -14 42 -18 218 -8 290 17 84 28 204 101 273 165 33 31 59 57 56 57
-3 0 -33 -18 -68 -40z m-879 -134 c9 -4 14 -12 11 -17 -4 -6 -9 -6 -14 2 -6 9
-13 9 -28 1 -27 -15 -85 -14 -100 1 -6 6 -15 9 -18 5 -12 -12 65 -38 93 -31
18 5 24 4 19 -5 -10 -16 -62 -14 -96 4 -33 17 -36 25 -17 44 12 13 111 10 150
-4z m401 -16 c-8 -14 -34 -11 -34 4 0 8 3 17 7 20 9 9 34 -13 27 -24z m-147
15 c-3 -3 -12 -4 -19 -1 -8 3 -5 6 6 6 11 1 17 -2 13 -5z m-922 -108 c18 -13
18 -14 -3 -25 -32 -17 -132 -15 -132 4 0 9 14 16 38 20 20 4 42 8 47 10 20 7
32 5 50 -9z m-798 -25 c2 -16 -7 -20 -59 -25 -57 -7 -63 -6 -85 18 l-23 25 77
3 c43 2 80 2 82 0 3 -1 6 -11 8 -21z m271 22 c-10 -2 -26 -2 -35 0 -10 3 -2 5
17 5 19 0 27 -2 18 -5z"/>
<path d="M11879 1083 c10 -20 7 -30 -25 -75 l-36 -53 46 45 c25 24 46 49 46
56 0 6 -10 19 -21 30 -22 19 -22 19 -10 -3z"/>
<path d="M4133 1033 c9 -2 23 -2 30 0 6 3 -1 5 -18 5 -16 0 -22 -2 -12 -5z"/>
<path d="M9975 1000 c10 -11 20 -20 23 -20 3 0 -3 9 -13 20 -10 11 -20 20 -23
20 -3 0 3 -9 13 -20z"/>
<path d="M11745 893 c-37 -34 -44 -44 -20 -25 38 28 94 82 84 82 -2 -1 -31
-26 -64 -57z"/>
<path d="M10070 911 c51 -46 156 -121 168 -121 6 0 21 15 33 33 l23 32 -27
-24 c-28 -25 -28 -25 -60 -6 -17 10 -57 37 -87 60 -70 53 -95 66 -50 26z"/>
<path d="M11541 764 c-36 -19 -47 -21 -60 -11 -14 11 -14 10 -2 -6 16 -20 36
-16 96 19 51 31 24 29 -34 -2z"/>
<path d="M11401 734 c-1 -29 -7 -34 -71 -63 -38 -17 -70 -33 -70 -36 0 -6 142
46 154 56 5 5 5 21 -1 41 l-11 33 -1 -31z"/>
<path d="M10330 736 c43 -44 370 -140 454 -134 37 3 41 6 47 36 8 38 2 42 -11
7 -8 -21 -16 -25 -53 -25 -94 0 -250 41 -387 102 -38 17 -59 23 -50 14z"/>
<path d="M11150 620 l-25 -8 28 -1 c15 -1 27 4 27 9 0 6 -1 10 -2 9 -2 -1 -14
-5 -28 -9z"/>
<path d="M10900 600 c0 -12 125 -12 154 -1 11 4 -18 8 -68 9 -51 1 -86 -2 -86
-8z"/>
</g>
</svg>
