<?xml version="1.0" standalone="no"?>
<!DOCTYPE svg PUBLIC "-//W3C//DTD SVG 20010904//EN"
 "http://www.w3.org/TR/2001/REC-SVG-20010904/DTD/svg10.dtd">
<svg version="1.0" xmlns="http://www.w3.org/2000/svg"
 width="640.000000pt" height="1280.000000pt" viewBox="0 0 640.000000 1280.000000"
 preserveAspectRatio="xMidYMid meet">
<metadata>
Created by potrace 1.15, written by Peter Selinger 2001-2017
</metadata>
<g transform="translate(0.000000,1280.000000) scale(0.100000,-0.100000)"
fill="#000000" stroke="none">
<path d="M3170 12791 c-116 -35 -178 -129 -243 -362 -12 -43 -25 -79 -29 -79
-4 0 -13 20 -19 44 -20 80 -107 89 -167 16 -40 -47 -38 -129 3 -174 31 -34 74
-34 113 -1 35 29 55 32 48 8 -3 -10 -19 -83 -36 -163 -17 -79 -33 -146 -35
-148 -2 -2 -6 12 -10 30 -11 50 -32 68 -80 68 -49 0 -87 -29 -111 -85 -17 -42
-5 -104 27 -136 29 -29 89 -26 119 6 13 14 27 22 31 18 6 -7 -58 -392 -68
-403 -7 -8 -23 24 -23 47 0 41 -54 72 -104 59 -35 -9 -85 -65 -92 -103 -8 -41
19 -119 46 -133 32 -17 67 -11 99 16 45 37 57 27 66 -53 10 -99 38 -162 128
-295 l80 -119 -11 -2297 c-7 -1263 -15 -2584 -18 -2934 -7 -627 -7 -638 -26
-638 -11 0 -55 -27 -97 -61 -101 -81 -163 -112 -226 -113 -107 -1 -162 38
-415 294 -224 226 -281 270 -359 270 -58 0 -96 -29 -158 -123 -68 -101 -87
-167 -80 -276 8 -129 56 -258 170 -459 179 -316 201 -373 195 -499 -6 -106
-36 -190 -113 -308 -55 -86 -100 -138 -296 -341 -149 -155 -233 -276 -323
-465 -102 -216 -237 -617 -267 -794 -19 -115 -14 -381 10 -516 91 -514 439
-965 978 -1267 206 -115 453 -210 693 -266 162 -37 239 -46 450 -53 392 -11
742 37 1075 148 753 252 1238 798 1401 1576 25 118 26 140 20 273 -17 392
-157 730 -460 1110 -68 85 -75 98 -69 125 11 47 9 118 -4 122 -6 2 -28 -10
-48 -28 -20 -18 -40 -28 -44 -23 -4 5 -46 52 -92 104 -145 163 -197 230 -232
304 -75 154 -75 269 -3 491 58 174 76 263 76 363 0 135 -32 192 -137 244 -56
27 -81 34 -148 36 -103 5 -188 -19 -340 -96 -95 -47 -120 -56 -181 -60 -43 -3
-86 0 -109 8 -45 15 -104 67 -155 136 l-38 50 -7 2965 -7 2964 86 124 c98 142
125 206 133 308 7 84 20 96 65 58 48 -40 108 -33 134 17 52 100 -35 230 -131
198 -30 -10 -37 -18 -46 -56 -16 -64 -27 -63 -34 3 -4 32 -16 116 -26 187 -11
71 -17 131 -14 134 3 3 18 -7 33 -21 37 -36 89 -37 122 -2 17 18 25 40 28 79
4 50 2 56 -32 94 -43 47 -73 57 -117 39 -25 -10 -35 -23 -44 -52 -14 -47 -7
-65 -60 165 -19 85 -31 158 -27 162 5 5 19 -3 32 -17 33 -36 100 -35 129 0 44
57 38 127 -15 181 -28 27 -42 34 -74 34 -46 0 -80 -27 -80 -62 0 -24 -16 -56
-23 -48 -2 3 -16 46 -31 95 -49 159 -98 276 -130 310 -46 48 -149 69 -226 46z"/>
</g>
</svg>
