<?xml version="1.0" standalone="no"?>
<!DOCTYPE svg PUBLIC "-//W3C//DTD SVG 20010904//EN"
 "http://www.w3.org/TR/2001/REC-SVG-20010904/DTD/svg10.dtd">
<svg version="1.0" xmlns="http://www.w3.org/2000/svg"
 width="1280.000000pt" height="842.000000pt" viewBox="0 0 1280.000000 842.000000"
 preserveAspectRatio="xMidYMid meet">
<metadata>
Created by potrace 1.15, written by Peter Selinger 2001-2017
</metadata>
<g transform="translate(0.000000,842.000000) scale(0.100000,-0.100000)"
fill="#000000" stroke="none">
<path d="M3417 8406 c-80 -29 -148 -95 -176 -169 -8 -19 -11 -537 -11 -1654
l0 -1626 -1062 4 -1063 4 -82 -33 c-377 -152 -861 -666 -994 -1057 l-24 -70 0
-1670 0 -1670 24 -59 c38 -95 81 -133 255 -224 140 -74 161 -82 237 -91 499
-61 3391 -98 6834 -87 3181 9 4838 43 5030 101 53 15 246 145 301 202 54 55
90 130 104 213 6 43 10 616 10 1660 0 1535 -1 1598 -19 1660 -38 130 -97 240
-214 397 -199 266 -469 513 -685 626 -136 71 -57 67 -1264 67 l-1088 0 0 1628
c0 1842 6 1696 -80 1782 -87 88 218 80 -3074 80 -2433 -1 -2927 -3 -2959 -14z
m-600 -3706 l413 0 -2 -201 -3 -201 -155 -5 c-144 -5 -157 -7 -187 -29 -41
-31 -56 -80 -51 -165 4 -78 24 -114 79 -141 32 -17 218 -18 3464 -18 2228 0
3442 4 3466 10 19 5 48 23 64 40 26 27 29 38 33 112 3 75 2 87 -20 118 -33 48
-61 60 -148 60 -41 0 -112 3 -157 7 l-83 6 0 188 0 189 1078 0 1077 0 52 -24
c219 -102 549 -427 717 -706 l45 -75 -1202 -5 -1202 -5 -155 -58 c-258 -97
-665 -221 -1005 -306 -832 -208 -1577 -306 -2425 -318 -1252 -18 -2427 170
-3672 587 l-297 100 -1120 0 -1121 0 26 53 c150 295 548 685 797 778 50 19 72
20 666 14 338 -3 800 -5 1028 -5z m-81 -1180 c2023 -682 4040 -793 6044 -334
396 91 811 211 1160 336 l205 73 1198 3 1197 2 -2 -1527 c-3 -1336 -5 -1532
-18 -1558 -9 -17 -55 -58 -110 -96 l-95 -67 -120 -11 c-253 -23 -981 -43
-2250 -63 -1051 -16 -6019 -16 -7075 0 -1253 20 -1975 40 -2233 63 -116 10
-119 11 -231 70 -63 33 -120 67 -128 76 -11 13 -13 284 -16 1552 -1 844 0
1541 2 1548 4 10 225 13 1120 13 l1114 0 238 -80z"/>
<path d="M10169 3346 c-74 -21 -145 -65 -200 -123 -231 -245 -92 -638 247
-696 175 -30 370 70 448 229 105 213 17 458 -201 561 -67 32 -88 37 -162 40
-50 1 -105 -3 -132 -11z"/>
<path d="M11260 3337 c-107 -32 -184 -79 -270 -166 -86 -88 -132 -166 -160
-277 -38 -146 -23 -278 45 -420 74 -153 204 -266 369 -321 69 -23 98 -27 201
-27 106 0 130 3 200 28 200 69 346 217 408 411 32 101 31 262 -1 360 -35 105
-77 172 -161 255 -83 83 -177 136 -287 164 -93 24 -251 20 -344 -7z"/>
<path d="M592 3256 l-37 -34 -3 -244 c-3 -241 -3 -244 20 -278 41 -60 35 -60
473 -60 384 0 401 1 433 20 58 36 63 64 60 320 -3 214 -4 230 -24 257 -39 53
-38 53 -477 53 l-407 0 -38 -34z"/>
</g>
</svg>
