<?xml version="1.0" standalone="no"?>
<!DOCTYPE svg PUBLIC "-//W3C//DTD SVG 20010904//EN"
 "http://www.w3.org/TR/2001/REC-SVG-20010904/DTD/svg10.dtd">
<svg version="1.0" xmlns="http://www.w3.org/2000/svg"
 width="939.000000pt" height="1280.000000pt" viewBox="0 0 939.000000 1280.000000"
 preserveAspectRatio="xMidYMid meet">
<metadata>
Created by potrace 1.15, written by Peter Selinger 2001-2017
</metadata>
<g transform="translate(0.000000,1280.000000) scale(0.100000,-0.100000)"
fill="#000000" stroke="none">
<path d="M3035 12794 c-89 -9 -258 -37 -393 -65 -171 -34 -549 -127 -575 -141
-33 -17 -48 -72 -46 -171 1 -53 -3 -105 -10 -122 -40 -99 -53 -342 -31 -565
10 -88 9 -105 -5 -124 -51 -70 -69 -100 -89 -151 -23 -55 -24 -57 -167 -144
-441 -270 -635 -462 -737 -734 -19 -51 -45 -103 -59 -117 -82 -82 -204 -383
-324 -800 -74 -256 -127 -484 -139 -591 -11 -107 -51 -313 -140 -709 -60 -273
-88 -395 -235 -1018 -41 -178 -73 -327 -70 -332 3 -5 0 -18 -7 -29 -7 -11 -9
-23 -6 -26 4 -4 62 -26 130 -50 276 -96 573 -137 1099 -152 219 -6 237 -7 248
-26 7 -10 10 -21 8 -23 -2 -2 -80 -10 -172 -16 -248 -17 -583 7 -915 67 -96
17 -94 18 -131 -60 -40 -87 -21 -187 72 -360 26 -49 55 -110 65 -135 9 -25 47
-92 82 -150 214 -342 351 -800 406 -1350 27 -266 36 -482 39 -870 2 -422 7
-393 -81 -534 -64 -102 -67 -117 -64 -262 3 -154 -11 -210 -88 -364 -26 -52
-57 -124 -68 -160 -40 -126 -67 -410 -82 -862 -14 -428 -13 -575 3 -581 21 -8
36 -78 47 -217 12 -147 24 -196 50 -210 27 -15 245 12 379 46 191 48 349 120
606 277 72 43 134 82 139 84 11 7 -1 -211 -20 -357 -9 -63 -18 -134 -21 -157
-5 -41 -5 -42 34 -52 83 -22 149 -31 238 -31 159 0 308 56 558 208 62 38 162
97 222 132 61 34 120 72 133 83 31 29 28 71 -12 169 -19 46 -34 94 -34 108 0
14 -38 156 -86 317 l-86 292 -69 543 c-38 299 -72 595 -76 658 -3 63 -15 228
-26 365 -25 290 -22 518 10 1153 l20 382 -130 418 c-72 229 -147 472 -169 539
l-38 123 30 77 c76 199 128 439 128 597 l0 77 165 -3 c91 -2 165 -1 165 1 0
12 42 246 45 249 3 4 365 -523 365 -532 0 -3 -14 -25 -30 -48 -70 -96 -81
-252 -32 -432 13 -50 256 -428 1475 -2300 803 -1233 1465 -2247 1472 -2254 10
-11 24 -6 75 28 35 22 65 42 67 44 3 2 -1229 1884 -1514 2313 l-42 63 99 70
c54 38 102 70 107 70 4 -1 392 -560 860 -1244 l853 -1243 41 -7 c23 -4 55 -14
71 -22 16 -9 32 -13 35 -10 5 4 -493 729 -2542 3701 -243 352 -636 924 -875
1270 -528 769 -479 701 -494 679 -10 -13 -23 -16 -62 -12 -70 7 -102 31 -135
104 -15 34 -36 67 -47 73 -11 6 -33 31 -48 56 -16 25 -33 45 -38 45 -5 0 -6
-19 -2 -42 4 -24 9 -89 13 -144 l6 -102 -28 -18 c-16 -10 -39 -19 -51 -19 -12
-1 -29 -7 -37 -13 -8 -7 -37 -16 -65 -22 -29 -5 -65 -16 -81 -25 -34 -17 -103
-20 -130 -5 -14 7 -22 3 -40 -20 -27 -37 -45 -37 -137 -2 -68 25 -73 29 -84
67 -6 22 -31 90 -56 150 l-45 110 -97 35 -97 35 -31 93 -31 92 -74 52 c-103
72 -237 209 -360 369 -140 180 -141 184 -14 49 320 -338 389 -402 423 -393 27
7 155 -129 330 -352 l22 -27 32 27 c59 47 208 218 267 305 32 47 82 129 111
182 l52 98 -23 40 c-18 31 -34 44 -73 59 l-51 19 -6 57 c-8 68 -31 104 -85
128 -76 35 -87 42 -108 70 -19 25 -19 30 -6 75 22 76 23 143 3 169 -15 18 -35
24 -118 33 -55 6 -103 14 -107 18 -4 4 -1 32 7 61 13 52 13 55 -9 85 -13 17
-26 46 -30 65 -8 42 -5 39 40 -35 32 -53 34 -62 26 -100 -14 -63 -3 -74 71
-74 68 0 116 -22 138 -62 9 -15 12 -59 11 -127 -2 -95 -1 -106 20 -128 29 -31
91 -47 128 -34 16 5 53 30 84 55 30 24 132 97 225 161 151 103 171 119 176
148 3 18 14 111 26 207 18 154 24 178 45 203 50 59 106 200 174 432 l30 103 0
345 c0 326 -1 351 -24 464 -35 172 -59 261 -110 408 -62 182 -79 219 -138 294
-28 36 -57 73 -62 81 -26 36 23 -13 65 -65 l44 -55 82 0 c59 0 120 -9 211 -31
74 -19 165 -34 218 -37 l91 -4 12 73 c6 41 19 100 28 132 13 49 21 60 53 78
l38 22 -5 56 c-3 31 -9 70 -13 88 -8 32 -7 33 28 38 63 10 84 19 104 45 19 26
19 26 -16 113 -20 47 -45 104 -56 126 -26 51 -25 87 1 131 19 30 20 40 10 85
-6 27 -14 82 -17 120 -4 39 -10 77 -15 86 -9 17 -58 29 -218 54 -52 8 -96 17
-99 20 -7 7 -3 7 138 -10 69 -8 181 -26 249 -40 144 -29 181 -31 181 -10 0 16
-42 45 -135 93 -93 48 -87 37 -71 133 8 46 17 127 20 179 2 60 12 117 25 154
36 102 26 135 -47 156 -39 12 -268 21 -337 14z m188 -6526 c2 -7 331 -488 729
-1068 398 -580 727 -1060 731 -1066 4 -7 -31 -38 -90 -78 -78 -55 -98 -65
-108 -54 -7 7 -295 431 -640 942 -593 878 -630 935 -659 1020 -40 122 -43 223
-6 278 27 40 35 45 43 26z m-1718 -3489 c142 -433 232 -904 265 -1394 11 -169
12 -200 6 -194 -7 7 -60 329 -116 709 -28 190 -60 390 -71 445 -16 82 -125
523 -145 588 -3 9 -3 17 0 17 3 0 30 -77 61 -171z"/>
<path d="M4331 9643 c-28 -11 -2206 -1462 -2215 -1475 -10 -16 -3 -27 562
-895 212 -327 373 -565 384 -569 20 -6 22 -5 1383 871 369 237 684 439 700
449 l30 18 -25 -21 c-22 -18 -259 -180 -1607 -1104 -210 -144 -384 -266 -386
-272 -2 -5 50 -98 117 -205 231 -373 458 -731 473 -745 8 -8 27 -15 42 -15 19
0 340 218 1181 803 634 442 1158 810 1163 818 7 11 -41 94 -185 324 -394 627
-403 640 -427 637 -12 -1 -64 -31 -116 -67 -66 -47 -92 -60 -88 -46 2 10 -3
34 -13 52 -31 62 -897 1393 -927 1427 -21 23 -24 24 -46 15z"/>
<path d="M4830 6330 c-514 -347 -939 -636 -944 -644 -11 -16 35 -87 371 -581
124 -181 302 -447 396 -590 124 -187 179 -262 197 -269 22 -7 127 59 930 589
498 328 920 608 938 621 19 16 32 34 32 48 0 24 -90 164 -614 959 -263 397
-333 497 -350 497 -11 0 -442 -284 -956 -630z"/>
<path d="M7072 5673 c-963 -635 -2182 -1450 -2182 -1459 0 -10 210 -340 477
-749 93 -142 115 -170 135 -170 29 0 2485 1622 2493 1646 4 11 -86 158 -251
410 -141 217 -275 422 -297 457 -24 38 -46 62 -57 62 -10 0 -153 -89 -318
-197z"/>
<path d="M6730 4060 c-657 -445 -1199 -816 -1204 -823 -10 -16 36 -92 371
-614 147 -228 199 -303 214 -303 17 0 2233 1478 2387 1592 28 21 52 43 52 48
0 9 -92 154 -490 777 -72 113 -89 132 -110 132 -16 0 -444 -284 -1220 -809z"/>
<path d="M8644 3994 c-126 -86 -641 -441 -1144 -787 -503 -346 -964 -664
-1025 -705 -120 -82 -175 -129 -175 -149 0 -12 450 -736 469 -756 5 -5 24 -2
43 6 44 18 2501 1708 2546 1750 17 17 32 36 32 41 -1 6 -106 178 -234 381
-194 309 -237 370 -257 373 -19 2 -86 -38 -255 -154z"/>
<path d="M8193 2504 c-936 -627 -1091 -732 -1096 -746 -2 -7 0 -22 6 -33 15
-30 438 -687 456 -708 10 -12 23 -16 39 -12 24 6 1708 1130 1750 1168 12 11
22 28 22 36 0 9 -105 178 -233 376 -175 272 -238 361 -254 363 -15 2 -227
-134 -690 -444z"/>
<path d="M8094 1297 c-562 -364 -1029 -668 -1038 -676 -9 -7 -16 -21 -16 -30
0 -30 -47 -116 -94 -174 -47 -58 -52 -67 -37 -67 12 0 2215 1589 2219 1600 2
6 0 10 -5 9 -4 0 -467 -299 -1029 -662z"/>
<path d="M6252 1430 c-215 -57 -385 -219 -452 -435 -33 -105 -31 -262 4 -370
62 -193 210 -343 408 -412 103 -36 269 -39 378 -5 180 56 322 182 400 355 36
82 50 150 50 252 0 115 -14 174 -67 284 -36 76 -59 108 -117 165 -161 159
-390 222 -604 166z m320 -227 c140 -66 228 -196 236 -348 12 -221 -128 -396
-347 -437 -121 -23 -264 24 -357 116 -159 160 -162 411 -7 577 90 97 175 131
313 126 82 -2 104 -7 162 -34z"/>
<path d="M6354 1021 c-90 -22 -146 -91 -152 -185 -6 -95 36 -165 120 -201 99
-41 210 1 260 99 29 57 22 149 -15 203 -46 66 -138 102 -213 84z"/>
<path d="M1585 864 c-122 -65 -310 -141 -470 -189 -116 -35 -367 -95 -398 -95
-32 0 -36 -128 -7 -223 l20 -65 68 -9 c101 -12 620 -9 762 5 201 20 197 19
193 50 -2 15 5 44 15 64 24 46 14 58 -45 58 l-44 0 6 133 c3 72 8 176 11 230
3 53 1 97 -3 96 -4 -1 -53 -25 -108 -55z"/>
<path d="M2715 677 c-163 -116 -362 -218 -512 -264 -108 -32 -280 -38 -349
-11 l-41 16 -36 -117 c-39 -123 -44 -159 -26 -209 13 -39 80 -68 188 -84 107
-16 398 5 493 34 65 21 69 21 215 5 476 -53 754 -41 920 39 76 36 111 72 133
136 12 33 11 43 -15 115 -52 143 -90 160 -395 175 -113 5 -214 11 -226 14 -11
2 -75 46 -142 99 -67 52 -128 95 -134 95 -7 -1 -40 -20 -73 -43z"/>
</g>
</svg>
