<?xml version="1.0" standalone="no"?>
<!DOCTYPE svg PUBLIC "-//W3C//DTD SVG 20010904//EN"
 "http://www.w3.org/TR/2001/REC-SVG-20010904/DTD/svg10.dtd">
<svg version="1.0" xmlns="http://www.w3.org/2000/svg"
 width="1280.000000pt" height="1137.000000pt" viewBox="0 0 1280.000000 1137.000000"
 preserveAspectRatio="xMidYMid meet">
<metadata>
Created by potrace 1.15, written by Peter Selinger 2001-2017
</metadata>
<g transform="translate(0.000000,1137.000000) scale(0.100000,-0.100000)"
fill="#000000" stroke="none">
<path d="M5345 11280 c-60 -48 -110 -95 -110 -102 0 -8 218 -349 485 -758 267
-409 484 -747 482 -752 -1 -4 -700 -1096 -1554 -2426 -2013 -3137 -4549 -7088
-4605 -7174 l-43 -68 2310 0 2310 0 0 1610 0 1610 1780 0 1780 0 0 -1610 0
-1610 2310 0 2310 0 -47 73 c-112 175 -4866 7585 -5406 8427 -330 514 -635
990 -678 1056 l-77 121 464 743 c377 603 462 746 452 756 -37 36 -213 172
-218 169 -3 -2 -203 -323 -445 -714 -242 -391 -443 -710 -447 -709 -4 2 -215
325 -469 718 -254 393 -464 718 -468 722 -3 3 -55 -33 -116 -82z"/>
</g>
</svg>
